<svg xmlns="http://www.w3.org/2000/svg" xmlns:xlink="http://www.w3.org/1999/xlink" width="1920" zoomAndPan="magnify" viewBox="0 0 1440 299.999988" height="400" preserveAspectRatio="xMidYMid meet" version="1.0"><defs><g/><clipPath id="a74dcbd921"><path d="M 303 79 L 582 79 L 582 300 L 303 300 Z M 303 79 " clip-rule="nonzero"/></clipPath><clipPath id="75d66772d6"><path d="M 277.808594 140.203125 L 458.359375 9.75 L 643.277344 265.6875 L 462.726562 396.140625 Z M 277.808594 140.203125 " clip-rule="nonzero"/></clipPath><clipPath id="1d3e71e653"><path d="M 277.808594 140.203125 L 458.359375 9.75 L 643.277344 265.6875 L 462.726562 396.140625 Z M 277.808594 140.203125 " clip-rule="nonzero"/></clipPath><clipPath id="f91f80ca9c"><path d="M 863 0 L 1161 0 L 1161 179 L 863 179 Z M 863 0 " clip-rule="nonzero"/></clipPath><clipPath id="228b3d57de"><path d="M 836.464844 -47.699219 L 1029.175781 -186.9375 L 1226.832031 86.628906 L 1034.121094 225.863281 Z M 836.464844 -47.699219 " clip-rule="nonzero"/></clipPath><clipPath id="098caa7c4a"><path d="M 836.464844 -47.699219 L 1029.175781 -186.9375 L 1226.832031 86.628906 L 1034.121094 225.863281 Z M 836.464844 -47.699219 " clip-rule="nonzero"/></clipPath><clipPath id="f360dd44e9"><path d="M 573.199219 270 L 660.949219 270 L 660.949219 300 L 573.199219 300 Z M 573.199219 270 " clip-rule="nonzero"/></clipPath><clipPath id="7e1dc393a2"><path d="M 865.4375 0 L 959 0 L 959 47.582031 L 865.4375 47.582031 Z M 865.4375 0 " clip-rule="nonzero"/></clipPath><clipPath id="dcf4b7a3c1"><path d="M 446.339844 111 L 639 111 L 639 300 L 446.339844 300 Z M 446.339844 111 " clip-rule="nonzero"/></clipPath></defs><g clip-path="url(#a74dcbd921)"><g clip-path="url(#75d66772d6)"><g clip-path="url(#1d3e71e653)"><path fill="#049434" d="M 559.488281 149.871094 C 568.625 162.519531 570.535156 180.28125 559.988281 195.496094 C 545.476562 216.59375 555.824219 235.960938 571.023438 252.242188 C 591.367188 274.0625 580.378906 311.132812 551.199219 317.546875 C 544.816406 318.933594 538.191406 319.558594 532.335938 322.539062 C 524.914062 326.238281 519.144531 332.796875 511.703125 336.613281 C 485.660156 349.8125 465.140625 359.433594 437.554688 343.574219 C 415.878906 331.144531 400.136719 307.769531 401.234375 282.214844 C 401.96875 268.257812 397.128906 254.070312 388.535156 242.175781 C 379.695312 229.9375 366.914062 220.027344 352.054688 215.15625 C 336.527344 209.9375 324.265625 200.171875 315.820312 188.480469 C 306.636719 175.765625 301.164062 156.101562 303.824219 140.339844 C 307.550781 118.710938 330.863281 113.105469 349.492188 120.453125 C 363.394531 126.015625 381.714844 123.289062 391.90625 111.761719 C 395.589844 107.644531 398.40625 102.90625 401.492188 98.386719 C 413.628906 80.773438 438.839844 73.902344 457.265625 85.867188 C 468.257812 93.015625 469.210938 102.832031 475.132812 113.332031 C 483.863281 128.871094 501.375 138.277344 519.089844 134.425781 C 535.992188 130.746094 550.941406 138.046875 559.488281 149.871094 Z M 559.488281 149.871094 " fill-opacity="1" fill-rule="nonzero"/></g></g></g><g clip-path="url(#f91f80ca9c)"><g clip-path="url(#228b3d57de)"><g clip-path="url(#098caa7c4a)"><path fill="#049434" d="M 1137.269531 -37.164062 C 1147.035156 -23.648438 1149.085938 -4.667969 1137.835938 11.578125 C 1122.355469 34.109375 1133.421875 54.804688 1149.660156 72.210938 C 1171.402344 95.539062 1159.699219 135.132812 1128.539062 141.964844 C 1121.722656 143.441406 1114.648438 144.101562 1108.398438 147.285156 C 1100.476562 151.230469 1094.320312 158.234375 1086.378906 162.304688 C 1058.574219 176.390625 1036.671875 186.652344 1007.203125 169.691406 C 984.046875 156.394531 967.214844 131.410156 968.367188 104.105469 C 969.144531 89.199219 963.964844 74.035156 954.78125 61.320312 C 945.328125 48.242188 931.675781 37.644531 915.804688 32.429688 C 899.21875 26.84375 886.121094 16.402344 877.09375 3.90625 C 867.273438 -9.683594 861.417969 -30.699219 864.246094 -47.535156 C 868.210938 -70.636719 893.101562 -76.613281 913 -68.746094 C 927.847656 -62.792969 947.410156 -65.695312 958.285156 -78 C 962.214844 -82.398438 965.222656 -87.460938 968.511719 -92.285156 C 981.460938 -111.09375 1008.375 -118.417969 1028.0625 -105.617188 C 1039.804688 -97.976562 1040.832031 -87.484375 1047.160156 -76.265625 C 1056.496094 -59.65625 1075.203125 -49.597656 1094.117188 -53.699219 C 1112.164062 -57.617188 1128.132812 -49.804688 1137.269531 -37.164062 Z M 1137.269531 -37.164062 " fill-opacity="1" fill-rule="nonzero"/></g></g></g><g clip-path="url(#f360dd44e9)"><path fill="#e20c2f" d="M 574.066406 273.179688 L 574.066406 278.117188 L 660.101562 275.65625 L 660.101562 270 Z M 574.066406 285.460938 L 574.066406 289.046875 C 576.894531 289.398438 652.863281 285.742188 656.660156 285.460938 C 660.453125 285.179688 659.925781 282.351562 656.660156 282.351562 C 653.390625 282.351562 574.066406 285.460938 574.066406 285.460938 Z M 573.257812 297.128906 L 575.015625 300.484375 C 575.015625 300.484375 607.230469 298.585938 619.050781 297.128906 C 630.871094 295.671875 649.226562 295.089844 653.742188 294.351562 C 658.257812 293.613281 659.292969 293.332031 659.292969 293.332031 L 658.257812 290.117188 C 658.257812 290.117188 615.238281 294.492188 601.679688 295.300781 C 588.117188 296.109375 573.257812 297.128906 573.257812 297.128906 Z M 573.257812 309.09375 L 574.066406 312.011719 C 574.066406 312.011719 615.117188 312.308594 624.003906 312.011719 C 632.894531 311.710938 660.101562 310.621094 660.101562 310.621094 C 660.101562 310.621094 660.609375 309.832031 660.75 308.375 C 660.890625 306.914062 660.101562 306.773438 660.101562 306.773438 C 660.101562 306.773438 587.835938 308.65625 582.445312 308.65625 C 579.371094 308.636719 576.3125 308.796875 573.257812 309.09375 Z M 575.296875 320.460938 C 575.296875 320.460938 573.976562 322.5 582.585938 321.921875 C 591.191406 321.339844 659.292969 317.984375 659.292969 317.984375 L 660.082031 315.648438 Z M 575.296875 320.460938 " fill-opacity="1" fill-rule="nonzero"/></g><g clip-path="url(#7e1dc393a2)"><path fill="#e20c2f" d="M 866.355469 -5.261719 L 866.355469 0.0273438 L 958.285156 -2.605469 L 958.285156 -8.667969 Z M 866.355469 7.898438 L 866.355469 11.738281 C 869.378906 12.113281 950.550781 8.199219 954.605469 7.898438 C 958.660156 7.597656 958.097656 4.566406 954.605469 4.566406 C 951.113281 4.566406 866.355469 7.898438 866.355469 7.898438 Z M 865.492188 20.398438 L 867.367188 23.992188 C 867.367188 23.992188 901.789062 21.960938 914.421875 20.398438 C 927.054688 18.835938 946.667969 18.214844 951.492188 17.421875 C 956.3125 16.632812 957.421875 16.332031 957.421875 16.332031 L 956.3125 12.886719 C 956.3125 12.886719 910.347656 17.574219 895.859375 18.4375 C 881.371094 19.304688 865.492188 20.398438 865.492188 20.398438 Z M 865.492188 33.21875 L 866.355469 36.34375 C 866.355469 36.34375 910.21875 36.664062 919.714844 36.34375 C 929.210938 36.023438 958.285156 34.855469 958.285156 34.855469 C 958.285156 34.855469 958.828125 34.007812 958.980469 32.445312 C 959.128906 30.882812 958.285156 30.730469 958.285156 30.730469 C 958.285156 30.730469 881.070312 32.746094 875.308594 32.746094 C 872.023438 32.726562 868.757812 32.898438 865.492188 33.21875 Z M 867.667969 45.398438 C 867.667969 45.398438 866.261719 47.582031 875.457031 46.960938 C 884.65625 46.339844 957.421875 42.742188 957.421875 42.742188 L 958.265625 40.238281 Z M 867.667969 45.398438 " fill-opacity="1" fill-rule="nonzero"/></g><path fill="#e20c2f" d="M 1028.5625 171.953125 C 1028.5625 171.953125 1022.695312 128.734375 1004.886719 135.203125 C 987.078125 141.667969 965.386719 153.707031 979.359375 171.953125 C 993.328125 190.199219 1031.386719 185.402344 1028.5625 171.953125 " fill-opacity="1" fill-rule="nonzero"/><path fill="#e20c2f" d="M 478.589844 96.6875 C 478.589844 96.6875 473.054688 56.109375 456.257812 62.183594 C 439.460938 68.253906 419.003906 79.558594 432.179688 96.6875 C 445.355469 113.820312 481.253906 109.3125 478.589844 96.6875 " fill-opacity="1" fill-rule="nonzero"/><path fill="#ffcdba" d="M 626.917969 263.6875 L 624.476562 299.1875 L 604.015625 301.332031 L 602.695312 264.296875 Z M 626.917969 263.6875 " fill-opacity="1" fill-rule="nonzero"/><g clip-path="url(#dcf4b7a3c1)"><path fill="#ffffff" d="M 537.140625 111.691406 C 537.140625 111.691406 570.121094 116.480469 583.867188 120.15625 C 597.609375 123.828125 608.902344 136.683594 612.863281 148.3125 C 616.824219 159.941406 623.550781 183.503906 624.773438 188.707031 C 625.992188 193.910156 628.890625 203.550781 630.726562 211.1875 C 632.558594 218.824219 633.929688 226.792969 636.683594 241.023438 C 638.871094 252.460938 642.789062 263.671875 622.328125 266.734375 C 611.5 268.351562 603.089844 268.871094 603.089844 268.871094 L 604.003906 301.316406 L 475.15625 301.316406 L 479.128906 267.039062 C 455.613281 274.398438 447.0625 254.8125 446.738281 245.933594 C 446.414062 237.058594 450.097656 203.394531 449.472656 185.03125 C 448.851562 166.667969 456.832031 144.636719 467.527344 133.929688 C 478.222656 123.222656 507.222656 118.320312 507.222656 118.320312 Z M 537.140625 111.691406 " fill-opacity="1" fill-rule="nonzero"/></g><path fill="#ffcdba" d="M 535.460938 203.09375 L 545.386719 204.164062 C 549.054688 200.03125 548.898438 196.515625 546.152344 195.746094 C 543.40625 194.980469 536.535156 203.242188 536.535156 203.242188 " fill-opacity="1" fill-rule="nonzero"/><path fill="#3d3b37" d="M 548.59375 113.574219 L 547.066406 149.6875 C 529.816406 139.433594 504.390625 126.175781 504.390625 126.175781 L 507.238281 118.320312 C 524.625 107.304688 548.59375 113.574219 548.59375 113.574219 Z M 548.59375 113.574219 " fill-opacity="1" fill-rule="nonzero"/><path fill="#3d3b37" d="M 590.835938 173.019531 L 569.835938 175.238281 L 569.289062 170.035156 L 590.273438 167.816406 Z M 590.835938 173.019531 " fill-opacity="1" fill-rule="nonzero"/><path fill="#3d3b37" d="M 575.148438 178.207031 L 573.714844 163.632812 C 573.691406 163.363281 573.71875 163.101562 573.800781 162.84375 C 573.882812 162.589844 574.007812 162.359375 574.179688 162.152344 C 574.351562 161.945312 574.558594 161.78125 574.796875 161.65625 C 575.035156 161.535156 575.289062 161.460938 575.554688 161.4375 C 575.820312 161.417969 576.078125 161.449219 576.332031 161.53125 C 576.585938 161.613281 576.8125 161.742188 577.015625 161.914062 C 577.21875 162.085938 577.378906 162.292969 577.5 162.53125 C 577.621094 162.769531 577.691406 163.019531 577.710938 163.285156 L 578.171875 169.042969 L 576.234375 169.199219 L 577.121094 178.019531 C 577.132812 178.152344 577.121094 178.28125 577.085938 178.410156 C 577.046875 178.535156 576.988281 178.652344 576.90625 178.753906 C 576.820312 178.855469 576.722656 178.941406 576.605469 179.003906 C 576.488281 179.066406 576.363281 179.101562 576.234375 179.117188 C 576.101562 179.128906 575.972656 179.117188 575.84375 179.078125 C 575.71875 179.039062 575.601562 178.976562 575.5 178.890625 C 575.398438 178.804688 575.316406 178.703125 575.257812 178.582031 C 575.195312 178.464844 575.160156 178.339844 575.148438 178.207031 Z M 575.148438 178.207031 " fill-opacity="1" fill-rule="nonzero"/><path fill="#3d3b37" d="M 543.296875 185.503906 L 538.785156 182.292969 L 539.15625 182.292969 L 539.15625 181.328125 L 542.394531 181.328125 C 542.484375 181.328125 542.535156 181.28125 542.535156 181.1875 L 542.535156 178.210938 C 542.535156 178.117188 542.488281 178.070312 542.394531 178.070312 L 528.71875 178.070312 C 528.621094 178.070312 528.574219 178.117188 528.574219 178.210938 L 528.574219 181.1875 C 528.578125 181.28125 528.625 181.328125 528.71875 181.328125 L 531.699219 181.328125 L 531.699219 182.292969 L 532.085938 182.292969 L 527.507812 185.503906 C 527.019531 185.835938 526.777344 186.296875 526.785156 186.886719 L 526.785156 215.945312 C 526.785156 216.839844 543.980469 216.839844 543.980469 215.945312 L 543.980469 186.851562 C 543.984375 186.285156 543.757812 185.835938 543.296875 185.503906 Z M 543.296875 185.503906 " fill-opacity="1" fill-rule="nonzero"/><path fill="#ffffff" d="M 541.832031 190.960938 L 541.832031 214.253906 C 540.539062 214.367188 538.335938 214.464844 535.386719 214.464844 C 532.4375 214.464844 530.230469 214.367188 528.941406 214.253906 L 528.941406 190.960938 C 528.941406 189.058594 541.832031 189.058594 541.832031 190.960938 Z M 541.832031 190.960938 " fill-opacity="1" fill-rule="nonzero"/><path fill="#ffffff" d="M 529.230469 178.082031 L 529.445312 178.082031 L 529.445312 181.328125 L 529.230469 181.328125 Z M 531.660156 181.328125 L 531.875 181.328125 L 531.875 178.082031 L 531.660156 178.082031 Z M 534.082031 181.328125 L 534.277344 181.328125 L 534.277344 178.082031 L 534.0625 178.082031 Z M 536.511719 181.328125 L 536.726562 181.328125 L 536.726562 178.082031 L 536.511719 178.082031 Z M 538.9375 181.328125 L 539.15625 181.328125 L 539.15625 178.082031 L 538.9375 178.082031 Z M 541.367188 178.082031 L 541.367188 181.328125 L 541.578125 181.328125 L 541.578125 178.082031 Z M 541.367188 178.082031 " fill-opacity="1" fill-rule="nonzero"/><path fill="#3d3b37" d="M 526.703125 195.429688 L 544.125 195.429688 L 544.125 207.042969 L 526.703125 207.042969 Z M 526.703125 195.429688 " fill-opacity="1" fill-rule="nonzero"/><path fill="#ffffff" d="M 538.832031 201.097656 C 538.832031 201.582031 538.742188 202.050781 538.554688 202.5 C 538.371094 202.945312 538.105469 203.34375 537.765625 203.683594 C 537.421875 204.027344 537.027344 204.292969 536.582031 204.476562 C 536.132812 204.664062 535.667969 204.757812 535.183594 204.757812 C 534.699219 204.757812 534.234375 204.664062 533.789062 204.476562 C 533.339844 204.292969 532.945312 204.027344 532.601562 203.683594 C 532.261719 203.34375 531.996094 202.945312 531.8125 202.5 C 531.628906 202.050781 531.535156 201.582031 531.535156 201.097656 C 531.535156 200.613281 531.628906 200.148438 531.8125 199.699219 C 531.996094 199.25 532.261719 198.855469 532.601562 198.511719 C 532.945312 198.167969 533.339844 197.90625 533.789062 197.71875 C 534.234375 197.535156 534.699219 197.441406 535.183594 197.441406 C 535.667969 197.441406 536.132812 197.535156 536.582031 197.71875 C 537.027344 197.90625 537.421875 198.167969 537.765625 198.511719 C 538.105469 198.855469 538.371094 199.25 538.554688 199.699219 C 538.742188 200.148438 538.832031 200.613281 538.832031 201.097656 Z M 544.140625 196.164062 L 526.703125 196.164062 L 526.703125 196.378906 L 544.125 196.378906 Z M 544.140625 205.878906 L 526.703125 205.878906 L 526.703125 206.105469 L 544.125 206.105469 Z M 544.140625 205.878906 " fill-opacity="1" fill-rule="nonzero"/><path fill="#3d3b37" d="M 537.46875 200.402344 L 537.46875 201.796875 L 535.878906 201.796875 L 535.878906 203.390625 L 534.496094 203.390625 L 534.496094 201.796875 L 532.902344 201.796875 L 532.902344 200.402344 L 534.496094 200.402344 L 534.496094 198.808594 L 535.878906 198.808594 L 535.878906 200.402344 Z M 537.46875 200.402344 " fill-opacity="1" fill-rule="nonzero"/><path fill="#ffcdba" d="M 504.777344 215.976562 C 504.777344 215.976562 497.117188 226.074219 505.082031 244.433594 L 532.5625 226.683594 C 532.5625 226.683594 545.847656 225.460938 547.066406 223.164062 C 548.285156 220.867188 546 217.199219 546 217.199219 C 546 217.199219 548.59375 213.214844 544.320312 210.15625 C 544.625 210.464844 547.054688 208.628906 545.386719 204.191406 L 527.832031 202.355469 L 528.289062 197.457031 C 528.289062 197.457031 540.808594 197.457031 542.488281 196.996094 C 544.167969 196.535156 542.335938 192.101562 542.335938 192.101562 C 542.335938 192.101562 525.230469 190.570312 523.40625 191.339844 C 521.578125 192.105469 515.3125 211.078125 515.3125 211.078125 Z M 504.777344 215.976562 " fill-opacity="1" fill-rule="nonzero"/><path fill="#111b1e" d="M 522.027344 226.605469 C 521.960938 226.609375 521.898438 226.59375 521.839844 226.5625 C 513.589844 222.351562 514.890625 211.109375 514.902344 210.996094 C 514.917969 210.882812 514.96875 210.792969 515.058594 210.722656 C 515.148438 210.652344 515.25 210.625 515.363281 210.640625 C 515.472656 210.65625 515.566406 210.707031 515.632812 210.796875 C 515.703125 210.886719 515.730469 210.988281 515.71875 211.101562 C 515.71875 211.210938 514.476562 221.878906 522.21875 225.832031 C 522.316406 225.886719 522.382812 225.964844 522.417969 226.070312 C 522.449219 226.179688 522.441406 226.28125 522.390625 226.382812 C 522.316406 226.535156 522.195312 226.609375 522.027344 226.605469 Z M 522.027344 226.605469 " fill-opacity="1" fill-rule="nonzero"/><path fill="#111b1e" d="M 523.40625 211.460938 C 523.292969 211.460938 523.195312 211.421875 523.113281 211.339844 C 523.035156 211.261719 522.992188 211.164062 522.992188 211.050781 C 522.992188 210.9375 523.035156 210.839844 523.113281 210.761719 C 523.195312 210.679688 523.292969 210.640625 523.40625 210.640625 L 544.324219 209.71875 C 544.441406 209.710938 544.539062 209.746094 544.621094 209.824219 C 544.707031 209.902344 544.75 210 544.753906 210.113281 C 544.753906 210.226562 544.71875 210.324219 544.640625 210.40625 C 544.566406 210.492188 544.472656 210.535156 544.359375 210.539062 L 523.441406 211.460938 Z M 523.40625 211.460938 " fill-opacity="1" fill-rule="nonzero"/><path fill="#111b1e" d="M 527.984375 218.804688 C 527.875 218.804688 527.78125 218.765625 527.699219 218.691406 C 527.621094 218.617188 527.578125 218.523438 527.574219 218.414062 C 527.570312 218.300781 527.605469 218.203125 527.679688 218.117188 C 527.753906 218.035156 527.847656 217.988281 527.960938 217.980469 L 546.132812 217.070312 C 546.246094 217.058594 546.347656 217.09375 546.433594 217.171875 C 546.519531 217.246094 546.5625 217.34375 546.5625 217.460938 C 546.566406 217.574219 546.53125 217.671875 546.457031 217.757812 C 546.382812 217.839844 546.289062 217.886719 546.175781 217.894531 L 528.003906 218.808594 Z M 527.984375 218.804688 " fill-opacity="1" fill-rule="nonzero"/><path fill="#111b1e" d="M 527.832031 202.738281 L 522.90625 202.6875 C 522.792969 202.6875 522.695312 202.644531 522.617188 202.566406 C 522.539062 202.484375 522.5 202.386719 522.5 202.273438 C 522.5 202.15625 522.539062 202.058594 522.617188 201.980469 C 522.699219 201.898438 522.796875 201.863281 522.910156 201.867188 L 527.835938 201.914062 C 527.949219 201.914062 528.046875 201.957031 528.125 202.035156 C 528.207031 202.117188 528.246094 202.214844 528.246094 202.328125 C 528.246094 202.441406 528.207031 202.539062 528.125 202.617188 C 528.046875 202.699219 527.949219 202.738281 527.835938 202.738281 Z M 527.832031 202.738281 " fill-opacity="1" fill-rule="nonzero"/><path fill="#111b1e" d="M 509.011719 254.269531 L 479.292969 267.429688 C 479.238281 267.453125 479.183594 267.46875 479.128906 267.46875 C 478.902344 267.472656 478.765625 267.363281 478.71875 267.144531 C 478.667969 266.921875 478.75 266.765625 478.957031 266.675781 L 508.308594 253.683594 C 507.03125 250.644531 504.71875 244.617188 504.699219 244.554688 C 504.652344 244.445312 504.652344 244.335938 504.699219 244.226562 C 504.746094 244.121094 504.824219 244.046875 504.933594 244.003906 C 505.042969 243.960938 505.152344 243.960938 505.257812 244.007812 C 505.367188 244.054688 505.441406 244.136719 505.480469 244.246094 C 505.480469 244.3125 508.007812 250.824219 509.238281 253.714844 C 509.289062 253.824219 509.289062 253.933594 509.246094 254.042969 C 509.199219 254.152344 509.121094 254.226562 509.011719 254.269531 Z M 467.429688 134.324219 C 467.582031 134.367188 483.042969 139.054688 484.230469 156.601562 C 484.238281 156.710938 484.285156 156.800781 484.363281 156.875 C 484.441406 156.949219 484.535156 156.984375 484.640625 156.988281 L 484.667969 156.988281 C 484.78125 156.980469 484.875 156.933594 484.953125 156.847656 C 485.027344 156.761719 485.058594 156.660156 485.050781 156.546875 C 483.828125 138.414062 467.816406 133.578125 467.652344 133.519531 C 467.542969 133.488281 467.441406 133.5 467.339844 133.554688 C 467.242188 133.609375 467.175781 133.695312 467.144531 133.804688 C 467.113281 133.914062 467.125 134.019531 467.183594 134.117188 C 467.238281 134.21875 467.320312 134.28125 467.429688 134.3125 Z M 595.945312 162.953125 L 595.972656 162.953125 C 596.085938 162.945312 596.183594 162.898438 596.257812 162.8125 C 596.332031 162.726562 596.363281 162.628906 596.355469 162.511719 C 595.453125 148.921875 595.894531 126.511719 595.902344 126.285156 C 595.90625 126.171875 595.867188 126.074219 595.789062 125.988281 C 595.707031 125.90625 595.609375 125.867188 595.496094 125.863281 C 595.382812 125.863281 595.289062 125.902344 595.207031 125.980469 C 595.128906 126.0625 595.089844 126.15625 595.085938 126.269531 C 595.085938 126.496094 594.636719 148.9375 595.546875 162.566406 C 595.550781 162.671875 595.589844 162.757812 595.660156 162.832031 C 595.734375 162.90625 595.820312 162.945312 595.921875 162.953125 Z M 626.398438 265.871094 C 626.367188 265.761719 626.304688 265.679688 626.207031 265.625 C 626.105469 265.566406 626.003906 265.554688 625.894531 265.585938 C 618.550781 267.632812 605.902344 268.328125 603.488281 268.460938 L 598.625 181.796875 C 598.617188 181.683594 598.574219 181.589844 598.488281 181.515625 C 598.402344 181.441406 598.304688 181.40625 598.191406 181.414062 C 598.078125 181.417969 597.984375 181.464844 597.910156 181.550781 C 597.832031 181.636719 597.800781 181.734375 597.804688 181.847656 L 602.691406 268.914062 C 602.695312 269.023438 602.738281 269.117188 602.820312 269.191406 C 602.898438 269.265625 602.992188 269.304688 603.101562 269.304688 C 603.25 269.304688 617.902344 268.667969 626.082031 266.386719 C 626.195312 266.363281 626.285156 266.300781 626.347656 266.199219 C 626.414062 266.097656 626.429688 265.988281 626.398438 265.871094 Z M 609.230469 204.421875 C 623.734375 203.183594 625.761719 191.035156 625.785156 190.910156 C 625.800781 190.800781 625.777344 190.699219 625.707031 190.605469 C 625.640625 190.515625 625.550781 190.460938 625.441406 190.445312 C 625.328125 190.429688 625.226562 190.453125 625.136719 190.519531 C 625.042969 190.585938 624.988281 190.671875 624.96875 190.785156 C 624.96875 190.90625 623.027344 202.414062 609.15625 203.597656 C 609.042969 203.605469 608.949219 203.648438 608.871094 203.730469 C 608.796875 203.816406 608.757812 203.914062 608.765625 204.027344 C 608.769531 204.140625 608.8125 204.234375 608.894531 204.3125 C 608.980469 204.390625 609.078125 204.425781 609.191406 204.421875 Z M 569.476562 120.496094 L 556.042969 114.375 C 555.941406 114.324219 555.835938 114.316406 555.722656 114.355469 C 555.613281 114.390625 555.535156 114.464844 555.484375 114.570312 C 555.4375 114.675781 555.433594 114.78125 555.476562 114.890625 C 555.519531 115 555.59375 115.078125 555.699219 115.121094 L 568.386719 120.902344 L 553.894531 128.824219 C 553.730469 128.910156 553.660156 129.042969 553.679688 129.226562 C 553.695312 129.410156 553.792969 129.527344 553.972656 129.574219 L 567.589844 133.792969 L 555.898438 176.675781 C 551.84375 159.066406 547.375 148.332031 547.292969 148.164062 C 547.25 148.054688 547.175781 147.976562 547.066406 147.933594 C 546.957031 147.890625 546.851562 147.894531 546.742188 147.945312 C 546.636719 147.988281 546.5625 148.066406 546.519531 148.171875 C 546.476562 148.28125 546.476562 148.386719 546.523438 148.492188 C 546.601562 148.679688 551.027344 159.277344 555.050781 176.710938 C 547.839844 169.707031 516.960938 149.226562 513.5 146.941406 L 516.449219 138.367188 C 516.492188 138.242188 516.480469 138.125 516.40625 138.015625 C 516.335938 137.902344 516.238281 137.839844 516.105469 137.824219 L 496.378906 135.835938 C 499.113281 128.675781 505.34375 119.277344 505.410156 119.179688 C 505.472656 119.085938 505.492188 118.980469 505.46875 118.871094 C 505.449219 118.757812 505.390625 118.671875 505.296875 118.609375 C 505.199219 118.546875 505.097656 118.527344 504.988281 118.550781 C 504.875 118.570312 504.789062 118.628906 504.726562 118.726562 C 504.660156 118.824219 498.050781 128.746094 495.425781 136.050781 C 495.378906 136.175781 495.390625 136.296875 495.460938 136.410156 C 495.53125 136.527344 495.636719 136.589844 495.769531 136.601562 L 515.507812 138.589844 L 512.625 146.972656 C 512.558594 147.175781 512.613281 147.335938 512.789062 147.453125 C 513.15625 147.691406 549.445312 171.675781 555.160156 177.988281 C 555.21875 178.050781 555.289062 178.089844 555.371094 178.109375 C 558.972656 194.105469 561 210.296875 561.460938 226.6875 C 562.671875 272.066406 562.988281 301.066406 562.988281 301.359375 C 562.988281 301.472656 563.03125 301.566406 563.109375 301.644531 C 563.191406 301.726562 563.285156 301.765625 563.398438 301.765625 C 563.511719 301.761719 563.605469 301.71875 563.683594 301.640625 C 563.761719 301.558594 563.804688 301.460938 563.804688 301.347656 C 563.804688 301.0625 563.484375 272.050781 562.277344 226.667969 C 561.816406 210.25 559.785156 194.027344 556.1875 178.003906 C 556.328125 177.957031 556.417969 177.863281 556.460938 177.71875 L 568.496094 133.648438 C 568.527344 133.542969 568.515625 133.441406 568.460938 133.34375 C 568.410156 133.242188 568.328125 133.179688 568.222656 133.144531 L 555.160156 129.097656 L 569.519531 121.253906 C 569.671875 121.175781 569.746094 121.054688 569.746094 120.886719 C 569.746094 120.714844 569.671875 120.59375 569.519531 120.519531 Z M 543.078125 272.453125 C 543.164062 272.535156 543.207031 272.636719 543.203125 272.757812 L 542.285156 301.675781 C 542.285156 301.789062 542.242188 301.882812 542.164062 301.960938 C 542.082031 302.039062 541.988281 302.078125 541.875 302.078125 C 541.761719 302.074219 541.664062 302.027344 541.585938 301.945312 C 541.507812 301.863281 541.472656 301.761719 541.476562 301.648438 L 542.0625 283.214844 C 542.011719 283.238281 541.957031 283.25 541.902344 283.253906 L 500.902344 284.597656 L 500.617188 300.722656 C 500.617188 300.835938 500.574219 300.929688 500.496094 301.011719 C 500.414062 301.089844 500.320312 301.128906 500.207031 301.128906 C 500.09375 301.125 500 301.082031 499.921875 301.003906 C 499.84375 300.921875 499.804688 300.824219 499.808594 300.710938 L 500.261719 275 C 500.265625 274.894531 500.304688 274.800781 500.378906 274.726562 C 500.453125 274.648438 500.542969 274.605469 500.648438 274.601562 L 542.777344 272.304688 C 542.902344 272.304688 543.003906 272.351562 543.078125 272.453125 Z M 542.367188 273.175781 L 501.054688 275.429688 L 500.902344 283.773438 L 541.859375 282.402344 C 541.933594 282.402344 542 282.421875 542.066406 282.457031 Z M 603.417969 282.707031 L 581.445312 281.96875 C 581.375 281.972656 581.3125 281.992188 581.25 282.03125 L 580.953125 272.710938 L 603.25 273.921875 C 603.363281 273.929688 603.464844 273.898438 603.550781 273.820312 C 603.632812 273.742188 603.679688 273.648438 603.679688 273.53125 C 603.6875 273.417969 603.652344 273.320312 603.574219 273.234375 C 603.5 273.152344 603.40625 273.105469 603.292969 273.097656 L 580.554688 271.859375 C 580.433594 271.855469 580.328125 271.894531 580.242188 271.980469 C 580.15625 272.0625 580.117188 272.167969 580.125 272.285156 L 581.035156 301.207031 C 581.039062 301.316406 581.082031 301.410156 581.160156 301.488281 C 581.242188 301.566406 581.335938 301.605469 581.445312 301.605469 C 581.5625 301.601562 581.65625 301.558594 581.734375 301.472656 C 581.8125 301.390625 581.847656 301.292969 581.847656 301.179688 L 581.261719 282.742188 C 581.3125 282.765625 581.363281 282.78125 581.417969 282.78125 L 603.390625 283.515625 C 603.503906 283.515625 603.601562 283.476562 603.683594 283.394531 C 603.761719 283.316406 603.800781 283.21875 603.800781 283.105469 C 603.800781 282.992188 603.761719 282.894531 603.683594 282.816406 C 603.601562 282.734375 603.503906 282.695312 603.390625 282.695312 Z M 504.027344 216.441406 C 502.808594 218.824219 501.96875 221.335938 501.507812 223.972656 C 501.042969 226.609375 500.980469 229.257812 501.316406 231.914062 C 501.332031 232.015625 501.375 232.101562 501.453125 232.167969 C 501.53125 232.238281 501.621094 232.269531 501.722656 232.269531 L 501.777344 232.269531 C 501.890625 232.257812 501.980469 232.203125 502.046875 232.113281 C 502.117188 232.023438 502.144531 231.921875 502.128906 231.808594 C 501.796875 229.109375 501.886719 226.425781 502.398438 223.753906 C 502.914062 221.082031 503.820312 218.550781 505.125 216.167969 C 505.21875 216.023438 505.21875 215.878906 505.125 215.734375 C 505.035156 215.585938 504.90625 215.523438 504.738281 215.542969 C 498.992188 216.15625 492.054688 217.1875 485.648438 218.222656 L 485.648438 170.957031 C 485.648438 170.84375 485.609375 170.746094 485.527344 170.667969 C 485.449219 170.585938 485.351562 170.546875 485.238281 170.546875 C 485.125 170.546875 485.027344 170.585938 484.949219 170.667969 C 484.867188 170.746094 484.828125 170.84375 484.828125 170.957031 L 484.828125 218.347656 L 480.703125 219.035156 C 480.609375 218.996094 480.511719 218.996094 480.417969 219.035156 C 480.332031 219.0625 480.25 219.101562 480.160156 219.132812 C 472.226562 220.480469 466.144531 221.644531 466.023438 221.667969 C 465.910156 221.6875 465.824219 221.746094 465.761719 221.839844 C 465.695312 221.933594 465.675781 222.035156 465.695312 222.148438 C 465.714844 222.261719 465.773438 222.347656 465.867188 222.414062 C 465.960938 222.476562 466.066406 222.5 466.175781 222.476562 C 466.28125 222.476562 470.894531 221.574219 477.304688 220.460938 C 466.980469 226.246094 465.296875 239.003906 465.28125 239.152344 C 465.265625 239.265625 465.296875 239.367188 465.367188 239.457031 C 465.4375 239.546875 465.527344 239.597656 465.640625 239.613281 L 465.691406 239.613281 C 465.792969 239.613281 465.882812 239.578125 465.960938 239.507812 C 466.039062 239.4375 466.082031 239.355469 466.09375 239.25 C 466.09375 239.101562 468.03125 224.59375 480.378906 219.917969 C 487.769531 218.667969 496.765625 217.246094 504.027344 216.441406 Z M 504.027344 216.441406 " fill-opacity="1" fill-rule="nonzero"/><path fill="#3d3b37" d="M 515.234375 104.207031 C 509.554688 100.3125 504.476562 95.742188 500.003906 90.496094 C 498.152344 88.328125 496.191406 86.261719 494.125 84.296875 C 487.011719 77.546875 488.105469 64.703125 497.953125 61.0625 C 496.382812 43.253906 512.878906 41.0625 520.28125 43.535156 C 527.683594 46.007812 530.183594 51 543.523438 48.917969 C 553.25 47.394531 560.609375 68.03125 538.738281 72.167969 L 515.253906 104.214844 Z M 515.234375 104.207031 " fill-opacity="1" fill-rule="nonzero"/><path fill="#ffcdba" d="M 517.644531 91.785156 C 521.011719 88.402344 518.414062 81.742188 519.039062 79.820312 C 519.664062 77.902344 522.117188 77.199219 528.617188 74.183594 C 535.117188 71.167969 534.386719 65.515625 535.234375 61.640625 C 536.082031 57.761719 543.941406 56.703125 543.941406 56.703125 C 543.941406 56.703125 548.5 70.148438 551.097656 77.007812 C 553.699219 83.867188 555.871094 95.652344 551.546875 102.109375 C 547.226562 108.570312 537.699219 108.640625 537.699219 108.640625 C 536.152344 113.429688 541.300781 118.605469 541.300781 118.605469 L 548.148438 119.40625 C 548.148438 119.40625 544.097656 128.671875 535.019531 131.78125 C 525.941406 134.890625 515.042969 127.859375 515.042969 127.859375 C 515.410156 124.71875 511.128906 119.203125 511.128906 119.203125 C 513.238281 114.679688 512.675781 95.378906 512.675781 95.378906 C 512.675781 95.378906 502.320312 97.351562 503.089844 88.894531 C 503.863281 80.441406 513.878906 84.789062 513.878906 84.789062 Z M 517.644531 91.785156 " fill-opacity="1" fill-rule="nonzero"/><path fill="#111b1e" d="M 532.535156 92.054688 C 532.4375 92.054688 532.355469 92.023438 532.285156 91.957031 C 532.214844 91.890625 532.175781 91.804688 532.175781 91.710938 C 532.074219 87.734375 536.003906 86.867188 536.003906 86.863281 C 536.105469 86.832031 536.199219 86.847656 536.285156 86.898438 C 536.375 86.953125 536.429688 87.03125 536.449219 87.132812 C 536.472656 87.234375 536.449219 87.328125 536.390625 87.414062 C 536.332031 87.496094 536.25 87.546875 536.148438 87.558594 C 536.011719 87.589844 532.78125 88.316406 532.863281 91.6875 C 532.867188 91.785156 532.832031 91.871094 532.765625 91.941406 C 532.695312 92.015625 532.613281 92.050781 532.515625 92.054688 Z M 532.535156 92.054688 " fill-opacity="1" fill-rule="nonzero"/><path fill="#111b1e" d="M 542.339844 86.257812 C 542.203125 86.257812 542.089844 86.207031 541.996094 86.105469 C 541.910156 86.007812 541.871094 85.898438 541.878906 85.769531 C 541.886719 85.640625 541.9375 85.53125 542.035156 85.445312 C 543.226562 84.351562 544.769531 82.425781 544.304688 81.675781 C 543.457031 80.316406 539.242188 76.300781 539.203125 76.257812 C 539.113281 76.167969 539.066406 76.058594 539.066406 75.929688 C 539.066406 75.800781 539.113281 75.691406 539.203125 75.597656 C 539.296875 75.507812 539.40625 75.464844 539.53125 75.464844 C 539.660156 75.464844 539.769531 75.507812 539.863281 75.597656 C 540.035156 75.769531 544.199219 79.738281 545.109375 81.199219 C 546.152344 82.875 543.257812 85.621094 542.667969 86.132812 C 542.578125 86.222656 542.46875 86.261719 542.339844 86.257812 Z M 540.765625 70.332031 C 540.800781 70.214844 541.75 67.5625 545.886719 68.515625 C 546.015625 68.558594 546.140625 68.546875 546.257812 68.476562 C 546.378906 68.410156 546.453125 68.308594 546.484375 68.175781 C 546.511719 68.042969 546.488281 67.921875 546.414062 67.808594 C 546.335938 67.695312 546.226562 67.628906 546.09375 67.609375 C 541.101562 66.453125 539.894531 70.007812 539.882812 70.039062 C 539.84375 70.160156 539.851562 70.28125 539.910156 70.394531 C 539.964844 70.511719 540.054688 70.585938 540.179688 70.625 C 540.226562 70.632812 540.273438 70.632812 540.320312 70.625 C 540.535156 70.628906 540.683594 70.53125 540.765625 70.332031 Z M 527.921875 76.121094 C 527.960938 76.003906 528.910156 73.378906 533.050781 74.304688 C 533.167969 74.320312 533.277344 74.296875 533.378906 74.226562 C 533.476562 74.160156 533.539062 74.066406 533.566406 73.949219 C 533.59375 73.832031 533.578125 73.71875 533.519531 73.613281 C 533.460938 73.507812 533.371094 73.4375 533.257812 73.402344 C 528.269531 72.242188 527.054688 75.792969 527.042969 75.828125 C 527.003906 75.949219 527.011719 76.066406 527.070312 76.183594 C 527.128906 76.296875 527.21875 76.371094 527.339844 76.410156 C 527.460938 76.457031 527.578125 76.449219 527.695312 76.390625 C 527.808594 76.335938 527.886719 76.246094 527.921875 76.121094 Z M 532.667969 78.035156 C 532.511719 78.015625 532.359375 78.027344 532.207031 78.070312 C 532.054688 78.113281 531.917969 78.183594 531.796875 78.28125 C 531.671875 78.375 531.574219 78.492188 531.496094 78.628906 C 531.421875 78.769531 531.371094 78.914062 531.355469 79.070312 C 531.335938 79.226562 531.347656 79.378906 531.390625 79.53125 C 531.433594 79.683594 531.503906 79.820312 531.597656 79.941406 C 531.695312 80.066406 531.8125 80.167969 531.949219 80.242188 C 532.085938 80.320312 532.230469 80.367188 532.386719 80.386719 C 532.542969 80.40625 532.695312 80.394531 532.847656 80.351562 C 533 80.308594 533.136719 80.238281 533.257812 80.140625 C 533.382812 80.042969 533.480469 79.925781 533.558594 79.789062 C 533.636719 79.652344 533.683594 79.507812 533.699219 79.351562 C 533.71875 79.195312 533.707031 79.039062 533.664062 78.890625 C 533.621094 78.738281 533.550781 78.601562 533.453125 78.480469 C 533.355469 78.355469 533.242188 78.253906 533.105469 78.179688 C 532.96875 78.101562 532.824219 78.054688 532.667969 78.035156 Z M 546.5625 74.507812 C 546.40625 74.492188 546.253906 74.503906 546.105469 74.546875 C 545.953125 74.589844 545.816406 74.660156 545.695312 74.757812 C 545.570312 74.855469 545.472656 74.972656 545.398438 75.109375 C 545.320312 75.246094 545.273438 75.394531 545.253906 75.550781 C 545.238281 75.703125 545.25 75.859375 545.292969 76.007812 C 545.335938 76.160156 545.40625 76.296875 545.503906 76.421875 C 545.601562 76.542969 545.71875 76.644531 545.855469 76.71875 C 545.992188 76.796875 546.136719 76.84375 546.292969 76.863281 C 546.449219 76.878906 546.601562 76.867188 546.75 76.824219 C 546.902344 76.78125 547.039062 76.710938 547.160156 76.613281 C 547.285156 76.515625 547.382812 76.398438 547.460938 76.261719 C 547.539062 76.125 547.585938 75.980469 547.601562 75.824219 C 547.621094 75.667969 547.609375 75.511719 547.566406 75.363281 C 547.527344 75.210938 547.457031 75.070312 547.359375 74.949219 C 547.261719 74.824219 547.140625 74.726562 547.003906 74.648438 C 546.867188 74.570312 546.71875 74.527344 546.5625 74.507812 Z M 546.5625 74.507812 " fill-opacity="1" fill-rule="nonzero"/><path fill="#111b1e" d="M 549.976562 85.320312 C 549.832031 85.320312 549.726562 85.257812 549.660156 85.128906 C 548.183594 82.304688 545.164062 82.847656 545.035156 82.871094 C 544.941406 82.890625 544.851562 82.871094 544.769531 82.816406 C 544.6875 82.761719 544.640625 82.6875 544.621094 82.589844 C 544.601562 82.492188 544.617188 82.402344 544.671875 82.320312 C 544.726562 82.238281 544.804688 82.1875 544.898438 82.167969 C 544.9375 82.167969 548.566406 81.492188 550.289062 84.792969 C 550.335938 84.882812 550.34375 84.972656 550.316406 85.066406 C 550.285156 85.160156 550.230469 85.230469 550.140625 85.277344 C 550.089844 85.304688 550.035156 85.320312 549.976562 85.320312 Z M 549.976562 85.320312 " fill-opacity="1" fill-rule="nonzero"/><path fill="#ffcdba" d="M 537.699219 108.640625 C 539.585938 114.898438 542.625 118.40625 542.625 118.40625 L 548.167969 119.40625 C 548.167969 119.40625 544.113281 128.671875 535.035156 131.78125 C 525.960938 134.890625 515.0625 127.859375 515.0625 127.859375 C 510.136719 123.867188 508.984375 120.183594 508.984375 120.183594 C 510.042969 117.90625 512.742188 105.515625 512.71875 102.269531 C 524.472656 109.628906 537.699219 108.640625 537.699219 108.640625 Z M 537.699219 108.640625 " fill-opacity="1" fill-rule="nonzero"/><path fill="#ffffff" d="M 546.96875 106.980469 C 538.265625 110.785156 532.359375 108.925781 529.734375 107.589844 C 526.550781 106.492188 513.375 101.519531 512.253906 95.453125 C 512.234375 95.339844 512.257812 95.238281 512.324219 95.144531 C 512.386719 95.046875 512.476562 94.988281 512.589844 94.964844 C 512.703125 94.945312 512.804688 94.96875 512.898438 95.035156 C 512.996094 95.097656 513.054688 95.1875 513.074219 95.300781 C 513.921875 99.882812 522.835938 104.003906 527.640625 105.90625 C 524.40625 101.375 523.65625 94.441406 523.507812 92.480469 C 521.71875 90.289062 518.273438 86.691406 513.765625 85.183594 C 513.648438 85.148438 513.566406 85.074219 513.515625 84.96875 C 513.460938 84.859375 513.457031 84.746094 513.5 84.636719 C 513.535156 84.519531 513.609375 84.433594 513.71875 84.382812 C 513.828125 84.332031 513.9375 84.328125 514.050781 84.371094 C 518.546875 85.875 521.953125 89.246094 523.898438 91.542969 C 534.609375 80.308594 552.550781 80.578125 552.550781 80.578125 C 555.871094 88.765625 559.058594 101.695312 546.96875 106.980469 Z M 546.96875 106.980469 " fill-opacity="1" fill-rule="nonzero"/><path fill="#3d3b37" d="M 534.054688 92.082031 C 533.996094 92.121094 533.929688 92.140625 533.859375 92.140625 C 533.730469 92.140625 533.632812 92.089844 533.558594 91.984375 C 533.503906 91.902344 533.488281 91.8125 533.507812 91.714844 C 533.527344 91.621094 533.574219 91.542969 533.65625 91.488281 C 534.054688 91.222656 543.503906 84.910156 550.722656 86.949219 C 550.816406 86.976562 550.886719 87.035156 550.933594 87.121094 C 550.984375 87.207031 550.992188 87.296875 550.964844 87.390625 C 550.9375 87.484375 550.882812 87.558594 550.796875 87.605469 C 550.710938 87.652344 550.617188 87.664062 550.523438 87.636719 C 543.636719 85.710938 534.148438 92.015625 534.054688 92.082031 Z M 551.296875 92.683594 C 551.269531 92.589844 551.214844 92.515625 551.128906 92.46875 C 551.042969 92.421875 550.953125 92.410156 550.859375 92.4375 L 536.25 96.59375 C 536.15625 96.621094 536.082031 96.679688 536.035156 96.765625 C 535.988281 96.851562 535.976562 96.941406 536.003906 97.039062 C 536.050781 97.214844 536.167969 97.300781 536.347656 97.296875 C 536.382812 97.300781 536.414062 97.300781 536.449219 97.296875 L 551.054688 93.152344 C 551.15625 93.125 551.230469 93.0625 551.277344 92.972656 C 551.324219 92.878906 551.332031 92.78125 551.296875 92.683594 Z M 550.539062 98.515625 C 546.550781 102.351562 537.289062 101.914062 537.195312 101.90625 C 537.097656 101.902344 537.011719 101.933594 536.9375 102 C 536.867188 102.0625 536.828125 102.144531 536.820312 102.246094 C 536.816406 102.34375 536.847656 102.429688 536.914062 102.503906 C 536.976562 102.578125 537.058594 102.617188 537.160156 102.621094 C 537.234375 102.621094 537.640625 102.621094 538.253906 102.621094 C 540.910156 102.621094 547.613281 102.273438 551.015625 99 C 551.085938 98.933594 551.125 98.847656 551.125 98.75 C 551.125 98.652344 551.09375 98.566406 551.023438 98.496094 C 550.957031 98.425781 550.871094 98.386719 550.773438 98.386719 C 550.675781 98.382812 550.589844 98.417969 550.519531 98.484375 Z M 550.539062 98.515625 " fill-opacity="1" fill-rule="nonzero"/><g fill="#16191b" fill-opacity="1"><g transform="translate(653.444556, 140.07945)"><g><path d="M 5.921875 0 L 5.921875 -9.929688 L 9.011719 -9.929688 L 9.011719 -12.394531 L 0.347656 -12.394531 L 0.347656 -9.929688 L 3.4375 -9.929688 L 3.4375 0 Z M 5.921875 0 "/></g></g></g><g fill="#16191b" fill-opacity="1"><g transform="translate(662.941085, 140.07945)"><g><path d="M 7.8125 0 L 7.8125 -2.484375 L 3.871094 -2.484375 L 3.871094 -4.964844 L 7.136719 -4.964844 L 7.136719 -7.449219 L 3.871094 -7.449219 L 3.871094 -9.929688 L 7.605469 -9.929688 L 7.605469 -12.414062 L 1.390625 -12.414062 L 1.390625 0 Z M 7.8125 0 "/></g></g></g><g fill="#16191b" fill-opacity="1"><g transform="translate(671.691085, 140.07945)"><g><path d="M 7.082031 -7.152344 L 2.1875 -12.605469 L 1.390625 -12.605469 L 1.390625 0 L 3.90625 0 L 3.90625 -6.925781 L 7.082031 -3.59375 L 10.261719 -6.925781 L 10.242188 0 L 12.761719 0 L 12.761719 -12.605469 L 11.980469 -12.605469 Z M 7.082031 -7.152344 "/></g></g></g><g fill="#16191b" fill-opacity="1"><g transform="translate(685.857754, 140.07945)"><g><path d="M 7.359375 0.171875 C 15.902344 0.171875 15.902344 -12.621094 7.359375 -12.621094 C -1.179688 -12.621094 -1.179688 0.171875 7.359375 0.171875 Z M 7.359375 -2.394531 C 2.394531 -2.394531 2.394531 -10.070312 7.359375 -10.070312 C 12.328125 -10.070312 12.328125 -2.394531 7.359375 -2.394531 Z M 7.359375 -2.394531 "/></g></g></g><g fill="#16191b" fill-opacity="1"><g transform="translate(700.562616, 140.07945)"><g><path d="M 0.816406 -0.796875 C 2.5 0.0703125 4.046875 0.15625 4.738281 0.105469 C 7.066406 -0.015625 8.488281 -1.597656 8.488281 -3.664062 C 8.488281 -5.640625 6.824219 -6.753906 4.894531 -7.464844 C 4.183594 -7.707031 3.578125 -8.019531 3.507812 -8.714844 C 3.453125 -9.410156 3.855469 -10.050781 4.738281 -10.105469 C 5.121094 -10.121094 5.902344 -10.140625 7.273438 -9.582031 L 7.585938 -11.980469 C 5.988281 -12.535156 5.140625 -12.535156 4.496094 -12.5 C 2.429688 -12.394531 0.988281 -10.796875 0.988281 -8.714844 C 0.988281 -6.632812 2.726562 -5.640625 4.671875 -4.929688 C 5.363281 -4.6875 5.902344 -4.375 5.953125 -3.664062 C 6.023438 -2.984375 5.398438 -2.464844 4.671875 -2.414062 C 4.097656 -2.359375 2.550781 -2.394531 1.128906 -3.402344 Z M 0.816406 -0.796875 "/></g></g></g><g fill="#16191b" fill-opacity="1"><g transform="translate(709.746642, 140.07945)"><g/></g></g><g fill="#16191b" fill-opacity="1"><g transform="translate(714.677201, 140.07945)"><g><path d="M 7.359375 0.171875 C 15.902344 0.171875 15.902344 -12.621094 7.359375 -12.621094 C -1.179688 -12.621094 -1.179688 0.171875 7.359375 0.171875 Z M 7.359375 -2.394531 C 2.394531 -2.394531 2.394531 -10.070312 7.359375 -10.070312 C 12.328125 -10.070312 12.328125 -2.394531 7.359375 -2.394531 Z M 7.359375 -2.394531 "/></g></g></g><g fill="#16191b" fill-opacity="1"><g transform="translate(729.382062, 140.07945)"><g><path d="M 0.816406 -0.796875 C 2.5 0.0703125 4.046875 0.15625 4.738281 0.105469 C 7.066406 -0.015625 8.488281 -1.597656 8.488281 -3.664062 C 8.488281 -5.640625 6.824219 -6.753906 4.894531 -7.464844 C 4.183594 -7.707031 3.578125 -8.019531 3.507812 -8.714844 C 3.453125 -9.410156 3.855469 -10.050781 4.738281 -10.105469 C 5.121094 -10.121094 5.902344 -10.140625 7.273438 -9.582031 L 7.585938 -11.980469 C 5.988281 -12.535156 5.140625 -12.535156 4.496094 -12.5 C 2.429688 -12.394531 0.988281 -10.796875 0.988281 -8.714844 C 0.988281 -6.632812 2.726562 -5.640625 4.671875 -4.929688 C 5.363281 -4.6875 5.902344 -4.375 5.953125 -3.664062 C 6.023438 -2.984375 5.398438 -2.464844 4.671875 -2.414062 C 4.097656 -2.359375 2.550781 -2.394531 1.128906 -3.402344 Z M 0.816406 -0.796875 "/></g></g></g><g fill="#16191b" fill-opacity="1"><g transform="translate(738.566094, 140.07945)"><g/></g></g><g fill="#16191b" fill-opacity="1"><g transform="translate(743.496653, 140.07945)"><g><path d="M 7.082031 -7.152344 L 2.1875 -12.605469 L 1.390625 -12.605469 L 1.390625 0 L 3.90625 0 L 3.90625 -6.925781 L 7.082031 -3.59375 L 10.261719 -6.925781 L 10.242188 0 L 12.761719 0 L 12.761719 -12.605469 L 11.980469 -12.605469 Z M 7.082031 -7.152344 "/></g></g></g><g fill="#16191b" fill-opacity="1"><g transform="translate(757.663325, 140.07945)"><g><path d="M 7.8125 0 L 7.8125 -2.484375 L 3.871094 -2.484375 L 3.871094 -4.964844 L 7.136719 -4.964844 L 7.136719 -7.449219 L 3.871094 -7.449219 L 3.871094 -9.929688 L 7.605469 -9.929688 L 7.605469 -12.414062 L 1.390625 -12.414062 L 1.390625 0 Z M 7.8125 0 "/></g></g></g><g fill="#16191b" fill-opacity="1"><g transform="translate(766.413328, 140.07945)"><g><path d="M 1.390625 -12.414062 L 1.390625 0 L 7.8125 0 L 7.8125 -2.484375 L 3.871094 -2.484375 L 3.871094 -12.414062 Z M 1.390625 -12.414062 "/></g></g></g><g fill="#16191b" fill-opacity="1"><g transform="translate(774.972353, 140.07945)"><g><path d="M 10.070312 0 L 10.070312 -12.414062 L 7.585938 -12.414062 L 7.585938 -7.449219 L 3.871094 -7.449219 L 3.871094 -12.414062 L 1.390625 -12.414062 L 1.390625 0 L 3.871094 0 L 3.871094 -4.964844 L 7.585938 -4.964844 L 7.585938 0 Z M 10.070312 0 "/></g></g></g><g fill="#16191b" fill-opacity="1"><g transform="translate(786.448053, 140.07945)"><g><path d="M 7.359375 0.171875 C 15.902344 0.171875 15.902344 -12.621094 7.359375 -12.621094 C -1.179688 -12.621094 -1.179688 0.171875 7.359375 0.171875 Z M 7.359375 -2.394531 C 2.394531 -2.394531 2.394531 -10.070312 7.359375 -10.070312 C 12.328125 -10.070312 12.328125 -2.394531 7.359375 -2.394531 Z M 7.359375 -2.394531 "/></g></g></g><g fill="#16191b" fill-opacity="1"><g transform="translate(801.152914, 140.07945)"><g><path d="M 7.570312 0 L 10.382812 0 L 7.5 -5.121094 C 11.144531 -6.179688 10.710938 -12.414062 6.285156 -12.414062 L 1.390625 -12.414062 L 1.390625 0 L 3.871094 0 L 3.871094 -4.738281 L 5.070312 -4.738281 Z M 3.871094 -7.152344 L 3.871094 -9.929688 L 6.058594 -9.929688 C 7.742188 -9.929688 7.742188 -7.152344 6.058594 -7.152344 Z M 3.871094 -7.152344 "/></g></g></g><g fill="#16191b" fill-opacity="1"><g transform="translate(811.795272, 140.07945)"><g><path d="M 7.8125 0 L 7.8125 -2.484375 L 3.871094 -2.484375 L 3.871094 -4.964844 L 7.136719 -4.964844 L 7.136719 -7.449219 L 3.871094 -7.449219 L 3.871094 -9.929688 L 7.605469 -9.929688 L 7.605469 -12.414062 L 1.390625 -12.414062 L 1.390625 0 Z M 7.8125 0 "/></g></g></g><g fill="#16191b" fill-opacity="1"><g transform="translate(820.545275, 140.07945)"><g><path d="M 0.816406 -0.796875 C 2.5 0.0703125 4.046875 0.15625 4.738281 0.105469 C 7.066406 -0.015625 8.488281 -1.597656 8.488281 -3.664062 C 8.488281 -5.640625 6.824219 -6.753906 4.894531 -7.464844 C 4.183594 -7.707031 3.578125 -8.019531 3.507812 -8.714844 C 3.453125 -9.410156 3.855469 -10.050781 4.738281 -10.105469 C 5.121094 -10.121094 5.902344 -10.140625 7.273438 -9.582031 L 7.585938 -11.980469 C 5.988281 -12.535156 5.140625 -12.535156 4.496094 -12.5 C 2.429688 -12.394531 0.988281 -10.796875 0.988281 -8.714844 C 0.988281 -6.632812 2.726562 -5.640625 4.671875 -4.929688 C 5.363281 -4.6875 5.902344 -4.375 5.953125 -3.664062 C 6.023438 -2.984375 5.398438 -2.464844 4.671875 -2.414062 C 4.097656 -2.359375 2.550781 -2.394531 1.128906 -3.402344 Z M 0.816406 -0.796875 "/></g></g></g><g fill="#16191b" fill-opacity="1"><g transform="translate(829.729307, 140.07945)"><g/></g></g><g fill="#16191b" fill-opacity="1"><g transform="translate(834.659866, 140.07945)"><g><path d="M 7.082031 -7.152344 L 2.1875 -12.605469 L 1.390625 -12.605469 L 1.390625 0 L 3.90625 0 L 3.90625 -6.925781 L 7.082031 -3.59375 L 10.261719 -6.925781 L 10.242188 0 L 12.761719 0 L 12.761719 -12.605469 L 11.980469 -12.605469 Z M 7.082031 -7.152344 "/></g></g></g><g fill="#16191b" fill-opacity="1"><g transform="translate(848.826527, 140.07945)"><g><path d="M 7.8125 0 L 7.8125 -2.484375 L 3.871094 -2.484375 L 3.871094 -4.964844 L 7.136719 -4.964844 L 7.136719 -7.449219 L 3.871094 -7.449219 L 3.871094 -9.929688 L 7.605469 -9.929688 L 7.605469 -12.414062 L 1.390625 -12.414062 L 1.390625 0 Z M 7.8125 0 "/></g></g></g><g fill="#16191b" fill-opacity="1"><g transform="translate(857.57653, 140.07945)"><g><path d="M 5.085938 -12.414062 L 1.390625 -12.414062 L 1.390625 0 L 5.085938 0 C 13.351562 0 13.351562 -12.414062 5.085938 -12.414062 Z M 5.085938 -9.929688 C 9.914062 -9.929688 9.914062 -2.484375 5.085938 -2.484375 L 3.871094 -2.484375 L 3.871094 -9.929688 Z M 5.085938 -9.929688 "/></g></g></g><g fill="#16191b" fill-opacity="1"><g transform="translate(869.798756, 140.07945)"><g><path d="M 3.871094 0 L 3.871094 -12.414062 L 1.390625 -12.414062 L 1.390625 0 Z M 3.871094 0 "/></g></g></g><g fill="#16191b" fill-opacity="1"><g transform="translate(875.076537, 140.07945)"><g><path d="M 9.289062 -9.53125 L 9.582031 -12.082031 C 8.835938 -12.414062 8.003906 -12.570312 7.136719 -12.570312 C -1.265625 -12.570312 -1.285156 0.0351562 7.136719 0.0351562 C 8.003906 0.0351562 9.097656 -0.171875 9.859375 -0.484375 L 9.53125 -3.054688 C 9.0625 -2.8125 8.210938 -2.5 7.136719 -2.5 C 2.222656 -2.5 2.222656 -10.070312 7.136719 -10.070312 C 8.210938 -10.070312 8.820312 -9.773438 9.289062 -9.53125 Z M 9.289062 -9.53125 "/></g></g></g><g fill="#16191b" fill-opacity="1"><g transform="translate(885.527917, 140.07945)"><g><path d="M 0.277344 0 L 3.089844 0 L 3.578125 -1.335938 L 7.691406 -1.335938 L 8.195312 0 L 10.988281 0 L 5.765625 -12.863281 L 5.503906 -12.863281 Z M 4.480469 -3.664062 L 5.640625 -6.890625 L 6.769531 -3.664062 Z M 4.480469 -3.664062 "/></g></g></g><g fill="#16191b" fill-opacity="1"><g transform="translate(896.86473, 140.07945)"><g><path d="M 7.082031 -7.152344 L 2.1875 -12.605469 L 1.390625 -12.605469 L 1.390625 0 L 3.90625 0 L 3.90625 -6.925781 L 7.082031 -3.59375 L 10.261719 -6.925781 L 10.242188 0 L 12.761719 0 L 12.761719 -12.605469 L 11.980469 -12.605469 Z M 7.082031 -7.152344 "/></g></g></g><g fill="#16191b" fill-opacity="1"><g transform="translate(911.031391, 140.07945)"><g><path d="M 7.8125 0 L 7.8125 -2.484375 L 3.871094 -2.484375 L 3.871094 -4.964844 L 7.136719 -4.964844 L 7.136719 -7.449219 L 3.871094 -7.449219 L 3.871094 -9.929688 L 7.605469 -9.929688 L 7.605469 -12.414062 L 1.390625 -12.414062 L 1.390625 0 Z M 7.8125 0 "/></g></g></g><g fill="#16191b" fill-opacity="1"><g transform="translate(919.781394, 140.07945)"><g><path d="M 3.871094 -6.753906 L 10.15625 0.261719 L 10.816406 0.261719 L 10.816406 -12.394531 L 8.316406 -12.394531 L 8.316406 -5.382812 L 2.046875 -12.671875 L 1.390625 -12.671875 L 1.390625 0 L 3.871094 0 Z M 3.871094 -6.753906 "/></g></g></g><g fill="#16191b" fill-opacity="1"><g transform="translate(932.003619, 140.07945)"><g><path d="M 5.921875 0 L 5.921875 -9.929688 L 9.011719 -9.929688 L 9.011719 -12.394531 L 0.347656 -12.394531 L 0.347656 -9.929688 L 3.4375 -9.929688 L 3.4375 0 Z M 5.921875 0 "/></g></g></g><g fill="#16191b" fill-opacity="1"><g transform="translate(941.500159, 140.07945)"><g><path d="M 7.359375 0.171875 C 15.902344 0.171875 15.902344 -12.621094 7.359375 -12.621094 C -1.179688 -12.621094 -1.179688 0.171875 7.359375 0.171875 Z M 7.359375 -2.394531 C 2.394531 -2.394531 2.394531 -10.070312 7.359375 -10.070312 C 12.328125 -10.070312 12.328125 -2.394531 7.359375 -2.394531 Z M 7.359375 -2.394531 "/></g></g></g><g fill="#16191b" fill-opacity="1"><g transform="translate(956.205032, 140.07945)"><g><path d="M 0.816406 -0.796875 C 2.5 0.0703125 4.046875 0.15625 4.738281 0.105469 C 7.066406 -0.015625 8.488281 -1.597656 8.488281 -3.664062 C 8.488281 -5.640625 6.824219 -6.753906 4.894531 -7.464844 C 4.183594 -7.707031 3.578125 -8.019531 3.507812 -8.714844 C 3.453125 -9.410156 3.855469 -10.050781 4.738281 -10.105469 C 5.121094 -10.121094 5.902344 -10.140625 7.273438 -9.582031 L 7.585938 -11.980469 C 5.988281 -12.535156 5.140625 -12.535156 4.496094 -12.5 C 2.429688 -12.394531 0.988281 -10.796875 0.988281 -8.714844 C 0.988281 -6.632812 2.726562 -5.640625 4.671875 -4.929688 C 5.363281 -4.6875 5.902344 -4.375 5.953125 -3.664062 C 6.023438 -2.984375 5.398438 -2.464844 4.671875 -2.414062 C 4.097656 -2.359375 2.550781 -2.394531 1.128906 -3.402344 Z M 0.816406 -0.796875 "/></g></g></g><g fill="#16191b" fill-opacity="1"><g transform="translate(783.330357, 163.141973)"><g><path d="M 4.390625 0.0625 C 3.273438 0.0625 2.332031 -0.304688 1.5625 -1.046875 C 0.800781 -1.796875 0.421875 -2.75 0.421875 -3.90625 C 0.421875 -5.0625 0.800781 -6.015625 1.5625 -6.765625 C 2.332031 -7.515625 3.273438 -7.890625 4.390625 -7.890625 C 5.222656 -7.890625 5.960938 -7.6875 6.609375 -7.28125 C 7.253906 -6.875 7.722656 -6.296875 8.015625 -5.546875 L 6.484375 -5.546875 C 6.066406 -6.335938 5.367188 -6.734375 4.390625 -6.734375 C 3.609375 -6.734375 2.96875 -6.472656 2.46875 -5.953125 C 1.976562 -5.441406 1.734375 -4.757812 1.734375 -3.90625 C 1.734375 -3.0625 1.976562 -2.378906 2.46875 -1.859375 C 2.96875 -1.347656 3.609375 -1.09375 4.390625 -1.09375 C 5.367188 -1.09375 6.066406 -1.484375 6.484375 -2.265625 L 8.015625 -2.265625 C 7.722656 -1.515625 7.253906 -0.9375 6.609375 -0.53125 C 5.960938 -0.132812 5.222656 0.0625 4.390625 0.0625 Z M 4.390625 0.0625 "/></g></g></g><g fill="#16191b" fill-opacity="1"><g transform="translate(792.008355, 163.141973)"><g><path d="M 4.859375 -1.53125 C 5.234375 -1.90625 5.421875 -2.425781 5.421875 -3.09375 C 5.421875 -3.757812 5.238281 -4.273438 4.875 -4.640625 C 4.507812 -5.015625 4.066406 -5.203125 3.546875 -5.203125 C 3.035156 -5.203125 2.601562 -5.015625 2.25 -4.640625 C 1.90625 -4.273438 1.734375 -3.757812 1.734375 -3.09375 C 1.734375 -2.425781 1.90625 -1.90625 2.25 -1.53125 C 2.59375 -1.15625 3.019531 -0.96875 3.53125 -0.96875 C 4.039062 -0.96875 4.484375 -1.15625 4.859375 -1.53125 Z M 3.515625 0.09375 C 2.617188 0.09375 1.878906 -0.195312 1.296875 -0.78125 C 0.710938 -1.363281 0.421875 -2.128906 0.421875 -3.078125 C 0.421875 -4.035156 0.722656 -4.804688 1.328125 -5.390625 C 1.929688 -5.984375 2.679688 -6.28125 3.578125 -6.28125 C 4.472656 -6.28125 5.222656 -5.984375 5.828125 -5.390625 C 6.429688 -4.804688 6.734375 -4.039062 6.734375 -3.09375 C 6.734375 -2.144531 6.421875 -1.375 5.796875 -0.78125 C 5.179688 -0.195312 4.421875 0.09375 3.515625 0.09375 Z M 3.515625 0.09375 "/></g></g></g><g fill="#16191b" fill-opacity="1"><g transform="translate(799.170792, 163.141973)"><g><path d="M 2.125 -6.1875 L 2.125 -5.203125 C 2.53125 -5.921875 3.1875 -6.28125 4.09375 -6.28125 C 4.570312 -6.28125 5 -6.164062 5.375 -5.9375 C 5.75 -5.71875 6.03125 -5.394531 6.21875 -4.96875 C 6.4375 -5.382812 6.738281 -5.707031 7.125 -5.9375 C 7.507812 -6.164062 7.945312 -6.28125 8.4375 -6.28125 C 9.144531 -6.28125 9.726562 -6.050781 10.1875 -5.59375 C 10.644531 -5.132812 10.875 -4.484375 10.875 -3.640625 L 10.875 0 L 9.59375 0 L 9.59375 -3.453125 C 9.59375 -4.003906 9.453125 -4.425781 9.171875 -4.71875 C 8.898438 -5.019531 8.523438 -5.171875 8.046875 -5.171875 C 7.566406 -5.171875 7.1875 -5.019531 6.90625 -4.71875 C 6.632812 -4.425781 6.5 -4.003906 6.5 -3.453125 L 6.5 0 L 5.234375 0 L 5.234375 -3.453125 C 5.234375 -4.003906 5.09375 -4.425781 4.8125 -4.71875 C 4.53125 -5.019531 4.148438 -5.171875 3.671875 -5.171875 C 3.203125 -5.171875 2.828125 -5.019531 2.546875 -4.71875 C 2.265625 -4.425781 2.125 -4.003906 2.125 -3.453125 L 2.125 0 L 0.84375 0 L 0.84375 -6.1875 Z M 2.125 -6.1875 "/></g></g></g><g fill="#16191b" fill-opacity="1"><g transform="translate(810.83501, 163.141973)"><g><path d="M 5.3125 -1.59375 C 5.6875 -1.976562 5.875 -2.488281 5.875 -3.125 C 5.875 -3.757812 5.6875 -4.257812 5.3125 -4.625 C 4.945312 -4.988281 4.507812 -5.171875 4 -5.171875 C 3.488281 -5.171875 3.046875 -4.984375 2.671875 -4.609375 C 2.304688 -4.234375 2.125 -3.726562 2.125 -3.09375 C 2.125 -2.457031 2.304688 -1.953125 2.671875 -1.578125 C 3.046875 -1.203125 3.484375 -1.015625 3.984375 -1.015625 C 4.492188 -1.015625 4.9375 -1.207031 5.3125 -1.59375 Z M 4.28125 -6.28125 C 5.101562 -6.28125 5.789062 -5.984375 6.34375 -5.390625 C 6.90625 -4.804688 7.1875 -4.046875 7.1875 -3.109375 C 7.1875 -2.171875 6.90625 -1.398438 6.34375 -0.796875 C 5.789062 -0.203125 5.101562 0.09375 4.28125 0.09375 C 3.789062 0.09375 3.363281 -0.015625 3 -0.234375 C 2.632812 -0.460938 2.34375 -0.769531 2.125 -1.15625 L 2.125 2.9375 L 0.84375 2.9375 L 0.84375 -6.1875 L 2.125 -6.1875 L 2.125 -5.078125 C 2.332031 -5.441406 2.617188 -5.734375 2.984375 -5.953125 C 3.359375 -6.171875 3.789062 -6.28125 4.28125 -6.28125 Z M 4.28125 -6.28125 "/></g></g></g><g fill="#16191b" fill-opacity="1"><g transform="translate(818.446502, 163.141973)"><g><path d="M 2.125 -6.1875 L 2.125 -5.109375 C 2.519531 -5.890625 3.132812 -6.28125 3.96875 -6.28125 L 3.96875 -4.953125 L 3.640625 -4.953125 C 3.140625 -4.953125 2.757812 -4.828125 2.5 -4.578125 C 2.25 -4.328125 2.125 -3.882812 2.125 -3.25 L 2.125 0 L 0.84375 0 L 0.84375 -6.1875 Z M 2.125 -6.1875 "/></g></g></g><g fill="#16191b" fill-opacity="1"><g transform="translate(822.757435, 163.141973)"><g><path d="M 3.4375 0.09375 C 2.539062 0.09375 1.8125 -0.195312 1.25 -0.78125 C 0.695312 -1.363281 0.421875 -2.132812 0.421875 -3.09375 C 0.421875 -4.0625 0.703125 -4.832031 1.265625 -5.40625 C 1.835938 -5.988281 2.570312 -6.28125 3.46875 -6.28125 C 4.375 -6.28125 5.101562 -6 5.65625 -5.4375 C 6.21875 -4.882812 6.5 -4.160156 6.5 -3.265625 C 6.5 -3.046875 6.488281 -2.84375 6.46875 -2.65625 L 1.734375 -2.65625 C 1.753906 -2.144531 1.921875 -1.734375 2.234375 -1.421875 C 2.554688 -1.117188 2.957031 -0.96875 3.4375 -0.96875 C 4.132812 -0.96875 4.625 -1.257812 4.90625 -1.84375 L 6.296875 -1.84375 C 6.109375 -1.269531 5.765625 -0.800781 5.265625 -0.4375 C 4.773438 -0.0820312 4.164062 0.09375 3.4375 0.09375 Z M 5.171875 -3.53125 C 5.160156 -4.039062 4.988281 -4.445312 4.65625 -4.75 C 4.332031 -5.050781 3.9375 -5.203125 3.46875 -5.203125 C 3 -5.203125 2.601562 -5.050781 2.28125 -4.75 C 1.96875 -4.445312 1.785156 -4.039062 1.734375 -3.53125 Z M 5.171875 -3.53125 "/></g></g></g><g fill="#16191b" fill-opacity="1"><g transform="translate(829.684117, 163.141973)"><g/></g></g><g fill="#16191b" fill-opacity="1"><g transform="translate(833.052033, 163.141973)"><g><path d="M 3.4375 0.09375 C 2.539062 0.09375 1.8125 -0.195312 1.25 -0.78125 C 0.695312 -1.363281 0.421875 -2.132812 0.421875 -3.09375 C 0.421875 -4.050781 0.703125 -4.820312 1.265625 -5.40625 C 1.828125 -5.988281 2.550781 -6.28125 3.4375 -6.28125 C 4.1875 -6.28125 4.804688 -6.101562 5.296875 -5.75 C 5.785156 -5.394531 6.117188 -4.890625 6.296875 -4.234375 L 4.90625 -4.234375 C 4.675781 -4.878906 4.1875 -5.203125 3.4375 -5.203125 C 2.914062 -5.203125 2.5 -5.015625 2.1875 -4.640625 C 1.882812 -4.273438 1.734375 -3.757812 1.734375 -3.09375 C 1.734375 -2.425781 1.882812 -1.90625 2.1875 -1.53125 C 2.5 -1.15625 2.914062 -0.96875 3.4375 -0.96875 C 4.1875 -0.96875 4.675781 -1.296875 4.90625 -1.953125 L 6.296875 -1.953125 C 6.117188 -1.328125 5.78125 -0.828125 5.28125 -0.453125 C 4.789062 -0.0859375 4.175781 0.09375 3.4375 0.09375 Z M 3.4375 0.09375 "/></g></g></g><g fill="#16191b" fill-opacity="1"><g transform="translate(839.787866, 163.141973)"><g><path d="M 4.859375 -1.53125 C 5.234375 -1.90625 5.421875 -2.425781 5.421875 -3.09375 C 5.421875 -3.757812 5.238281 -4.273438 4.875 -4.640625 C 4.507812 -5.015625 4.066406 -5.203125 3.546875 -5.203125 C 3.035156 -5.203125 2.601562 -5.015625 2.25 -4.640625 C 1.90625 -4.273438 1.734375 -3.757812 1.734375 -3.09375 C 1.734375 -2.425781 1.90625 -1.90625 2.25 -1.53125 C 2.59375 -1.15625 3.019531 -0.96875 3.53125 -0.96875 C 4.039062 -0.96875 4.484375 -1.15625 4.859375 -1.53125 Z M 3.515625 0.09375 C 2.617188 0.09375 1.878906 -0.195312 1.296875 -0.78125 C 0.710938 -1.363281 0.421875 -2.128906 0.421875 -3.078125 C 0.421875 -4.035156 0.722656 -4.804688 1.328125 -5.390625 C 1.929688 -5.984375 2.679688 -6.28125 3.578125 -6.28125 C 4.472656 -6.28125 5.222656 -5.984375 5.828125 -5.390625 C 6.429688 -4.804688 6.734375 -4.039062 6.734375 -3.09375 C 6.734375 -2.144531 6.421875 -1.375 5.796875 -0.78125 C 5.179688 -0.195312 4.421875 0.09375 3.515625 0.09375 Z M 3.515625 0.09375 "/></g></g></g><g fill="#16191b" fill-opacity="1"><g transform="translate(846.950304, 163.141973)"><g><path d="M 2.125 -6.1875 L 2.125 -5.203125 C 2.53125 -5.921875 3.1875 -6.28125 4.09375 -6.28125 C 4.570312 -6.28125 5 -6.164062 5.375 -5.9375 C 5.75 -5.71875 6.03125 -5.394531 6.21875 -4.96875 C 6.4375 -5.382812 6.738281 -5.707031 7.125 -5.9375 C 7.507812 -6.164062 7.945312 -6.28125 8.4375 -6.28125 C 9.144531 -6.28125 9.726562 -6.050781 10.1875 -5.59375 C 10.644531 -5.132812 10.875 -4.484375 10.875 -3.640625 L 10.875 0 L 9.59375 0 L 9.59375 -3.453125 C 9.59375 -4.003906 9.453125 -4.425781 9.171875 -4.71875 C 8.898438 -5.019531 8.523438 -5.171875 8.046875 -5.171875 C 7.566406 -5.171875 7.1875 -5.019531 6.90625 -4.71875 C 6.632812 -4.425781 6.5 -4.003906 6.5 -3.453125 L 6.5 0 L 5.234375 0 L 5.234375 -3.453125 C 5.234375 -4.003906 5.09375 -4.425781 4.8125 -4.71875 C 4.53125 -5.019531 4.148438 -5.171875 3.671875 -5.171875 C 3.203125 -5.171875 2.828125 -5.019531 2.546875 -4.71875 C 2.265625 -4.425781 2.125 -4.003906 2.125 -3.453125 L 2.125 0 L 0.84375 0 L 0.84375 -6.1875 Z M 2.125 -6.1875 "/></g></g></g><g fill="#16191b" fill-opacity="1"><g transform="translate(858.614524, 163.141973)"><g/></g></g><g fill="#16191b" fill-opacity="1"><g transform="translate(861.98244, 163.141973)"><g><path d="M 3.84375 -5.140625 L 2.328125 -5.140625 L 2.328125 -1.71875 C 2.328125 -1.488281 2.378906 -1.320312 2.484375 -1.21875 C 2.597656 -1.113281 2.785156 -1.0625 3.046875 -1.0625 L 3.84375 -1.0625 L 3.84375 0 L 2.828125 0 C 1.640625 0 1.046875 -0.570312 1.046875 -1.71875 L 1.046875 -5.140625 L 0.3125 -5.140625 L 0.3125 -6.1875 L 1.046875 -6.1875 L 1.046875 -7.71875 L 2.328125 -7.71875 L 2.328125 -6.1875 L 3.84375 -6.1875 Z M 3.84375 -5.140625 "/></g></g></g><g fill="#16191b" fill-opacity="1"><g transform="translate(866.158659, 163.141973)"><g><path d="M 2.125 -6.1875 L 2.125 -5.109375 C 2.519531 -5.890625 3.132812 -6.28125 3.96875 -6.28125 L 3.96875 -4.953125 L 3.640625 -4.953125 C 3.140625 -4.953125 2.757812 -4.828125 2.5 -4.578125 C 2.25 -4.328125 2.125 -3.882812 2.125 -3.25 L 2.125 0 L 0.84375 0 L 0.84375 -6.1875 Z M 2.125 -6.1875 "/></g></g></g><g fill="#16191b" fill-opacity="1"><g transform="translate(870.469595, 163.141973)"><g><path d="M 4.90625 -1.578125 C 5.28125 -1.953125 5.46875 -2.457031 5.46875 -3.09375 C 5.46875 -3.726562 5.28125 -4.234375 4.90625 -4.609375 C 4.539062 -4.984375 4.101562 -5.171875 3.59375 -5.171875 C 3.09375 -5.171875 2.65625 -4.988281 2.28125 -4.625 C 1.914062 -4.257812 1.734375 -3.757812 1.734375 -3.125 C 1.734375 -2.488281 1.914062 -1.976562 2.28125 -1.59375 C 2.65625 -1.207031 3.09375 -1.015625 3.59375 -1.015625 C 4.101562 -1.015625 4.539062 -1.203125 4.90625 -1.578125 Z M 3.328125 0.09375 C 2.503906 0.09375 1.8125 -0.203125 1.25 -0.796875 C 0.695312 -1.398438 0.421875 -2.171875 0.421875 -3.109375 C 0.421875 -4.046875 0.695312 -4.804688 1.25 -5.390625 C 1.8125 -5.984375 2.503906 -6.28125 3.328125 -6.28125 C 3.816406 -6.28125 4.242188 -6.171875 4.609375 -5.953125 C 4.984375 -5.734375 5.269531 -5.441406 5.46875 -5.078125 L 5.46875 -6.1875 L 6.765625 -6.1875 L 6.765625 0 L 5.46875 0 L 5.46875 -1.15625 C 5.257812 -0.769531 4.972656 -0.460938 4.609375 -0.234375 C 4.242188 -0.015625 3.816406 0.09375 3.328125 0.09375 Z M 3.328125 0.09375 "/></g></g></g><g fill="#16191b" fill-opacity="1"><g transform="translate(878.081091, 163.141973)"><g><path d="M 2.125 -6.1875 L 2.125 -5.203125 C 2.53125 -5.921875 3.1875 -6.28125 4.09375 -6.28125 C 4.789062 -6.28125 5.363281 -6.046875 5.8125 -5.578125 C 6.269531 -5.117188 6.5 -4.472656 6.5 -3.640625 L 6.5 0 L 5.234375 0 L 5.234375 -3.453125 C 5.234375 -4.003906 5.09375 -4.425781 4.8125 -4.71875 C 4.53125 -5.019531 4.148438 -5.171875 3.671875 -5.171875 C 3.203125 -5.171875 2.828125 -5.019531 2.546875 -4.71875 C 2.265625 -4.425781 2.125 -4.003906 2.125 -3.453125 L 2.125 0 L 0.84375 0 L 0.84375 -6.1875 Z M 2.125 -6.1875 "/></g></g></g><g fill="#16191b" fill-opacity="1"><g transform="translate(885.367014, 163.141973)"><g><path d="M 4.90625 -1.578125 C 5.28125 -1.953125 5.46875 -2.457031 5.46875 -3.09375 C 5.46875 -3.726562 5.28125 -4.234375 4.90625 -4.609375 C 4.539062 -4.984375 4.101562 -5.171875 3.59375 -5.171875 C 3.09375 -5.171875 2.65625 -4.988281 2.28125 -4.625 C 1.914062 -4.257812 1.734375 -3.757812 1.734375 -3.125 C 1.734375 -2.488281 1.914062 -1.976562 2.28125 -1.59375 C 2.65625 -1.207031 3.09375 -1.015625 3.59375 -1.015625 C 4.101562 -1.015625 4.539062 -1.203125 4.90625 -1.578125 Z M 3.328125 0.09375 C 2.503906 0.09375 1.8125 -0.203125 1.25 -0.796875 C 0.695312 -1.398438 0.421875 -2.171875 0.421875 -3.109375 C 0.421875 -4.046875 0.695312 -4.804688 1.25 -5.390625 C 1.8125 -5.984375 2.503906 -6.28125 3.328125 -6.28125 C 3.816406 -6.28125 4.242188 -6.171875 4.609375 -5.953125 C 4.984375 -5.734375 5.269531 -5.441406 5.46875 -5.078125 L 5.46875 -6.1875 L 6.765625 -6.1875 L 6.765625 2.9375 L 5.46875 2.9375 L 5.46875 -1.15625 C 5.257812 -0.769531 4.972656 -0.460938 4.609375 -0.234375 C 4.242188 -0.015625 3.816406 0.09375 3.328125 0.09375 Z M 3.328125 0.09375 "/></g></g></g><g fill="#16191b" fill-opacity="1"><g transform="translate(892.9785, 163.141973)"><g><path d="M 5.15625 -6.1875 L 6.4375 -6.1875 L 6.4375 0 L 5.15625 0 L 5.15625 -0.96875 C 4.757812 -0.257812 4.101562 0.09375 3.1875 0.09375 C 2.488281 0.09375 1.910156 -0.132812 1.453125 -0.59375 C 1.003906 -1.0625 0.78125 -1.707031 0.78125 -2.53125 L 0.78125 -6.1875 L 2.046875 -6.1875 L 2.046875 -2.71875 C 2.046875 -2.164062 2.1875 -1.742188 2.46875 -1.453125 C 2.75 -1.160156 3.125 -1.015625 3.59375 -1.015625 C 4.070312 -1.015625 4.453125 -1.160156 4.734375 -1.453125 C 5.015625 -1.742188 5.15625 -2.164062 5.15625 -2.71875 Z M 5.15625 -6.1875 "/></g></g></g><g fill="#16191b" fill-opacity="1"><g transform="translate(900.264423, 163.141973)"><g><path d="M 2.296875 -7.8125 C 2.296875 -7.582031 2.21875 -7.390625 2.0625 -7.234375 C 1.90625 -7.078125 1.710938 -7 1.484375 -7 C 1.253906 -7 1.0625 -7.078125 0.90625 -7.234375 C 0.75 -7.390625 0.671875 -7.582031 0.671875 -7.8125 C 0.671875 -8.050781 0.75 -8.25 0.90625 -8.40625 C 1.0625 -8.5625 1.253906 -8.640625 1.484375 -8.640625 C 1.710938 -8.640625 1.90625 -8.5625 2.0625 -8.40625 C 2.21875 -8.25 2.296875 -8.050781 2.296875 -7.8125 Z M 0.84375 0 L 0.84375 -6.1875 L 2.125 -6.1875 L 2.125 0 Z M 0.84375 0 "/></g></g></g><g fill="#16191b" fill-opacity="1"><g transform="translate(903.228188, 163.141973)"><g><path d="M 0.84375 0 L 0.84375 -8.296875 L 2.125 -8.296875 L 2.125 0 Z M 0.84375 0 "/></g></g></g><g fill="#16191b" fill-opacity="1"><g transform="translate(906.191953, 163.141973)"><g><path d="M 2.296875 -7.8125 C 2.296875 -7.582031 2.21875 -7.390625 2.0625 -7.234375 C 1.90625 -7.078125 1.710938 -7 1.484375 -7 C 1.253906 -7 1.0625 -7.078125 0.90625 -7.234375 C 0.75 -7.390625 0.671875 -7.582031 0.671875 -7.8125 C 0.671875 -8.050781 0.75 -8.25 0.90625 -8.40625 C 1.0625 -8.5625 1.253906 -8.640625 1.484375 -8.640625 C 1.710938 -8.640625 1.90625 -8.5625 2.0625 -8.40625 C 2.21875 -8.25 2.296875 -8.050781 2.296875 -7.8125 Z M 0.84375 0 L 0.84375 -6.1875 L 2.125 -6.1875 L 2.125 0 Z M 0.84375 0 "/></g></g></g><g fill="#16191b" fill-opacity="1"><g transform="translate(909.155718, 163.141973)"><g><path d="M 4.90625 -1.578125 C 5.28125 -1.953125 5.46875 -2.457031 5.46875 -3.09375 C 5.46875 -3.726562 5.28125 -4.234375 4.90625 -4.609375 C 4.539062 -4.984375 4.101562 -5.171875 3.59375 -5.171875 C 3.09375 -5.171875 2.65625 -4.988281 2.28125 -4.625 C 1.914062 -4.257812 1.734375 -3.757812 1.734375 -3.125 C 1.734375 -2.488281 1.914062 -1.976562 2.28125 -1.59375 C 2.65625 -1.207031 3.09375 -1.015625 3.59375 -1.015625 C 4.101562 -1.015625 4.539062 -1.203125 4.90625 -1.578125 Z M 3.328125 0.09375 C 2.503906 0.09375 1.8125 -0.203125 1.25 -0.796875 C 0.695312 -1.398438 0.421875 -2.171875 0.421875 -3.109375 C 0.421875 -4.046875 0.695312 -4.804688 1.25 -5.390625 C 1.8125 -5.984375 2.503906 -6.28125 3.328125 -6.28125 C 3.816406 -6.28125 4.242188 -6.171875 4.609375 -5.953125 C 4.984375 -5.734375 5.269531 -5.441406 5.46875 -5.078125 L 5.46875 -8.296875 L 6.765625 -8.296875 L 6.765625 0 L 5.46875 0 L 5.46875 -1.15625 C 5.257812 -0.769531 4.972656 -0.460938 4.609375 -0.234375 C 4.242188 -0.015625 3.816406 0.09375 3.328125 0.09375 Z M 3.328125 0.09375 "/></g></g></g><g fill="#16191b" fill-opacity="1"><g transform="translate(916.767204, 163.141973)"><g><path d="M 4.90625 -1.578125 C 5.28125 -1.953125 5.46875 -2.457031 5.46875 -3.09375 C 5.46875 -3.726562 5.28125 -4.234375 4.90625 -4.609375 C 4.539062 -4.984375 4.101562 -5.171875 3.59375 -5.171875 C 3.09375 -5.171875 2.65625 -4.988281 2.28125 -4.625 C 1.914062 -4.257812 1.734375 -3.757812 1.734375 -3.125 C 1.734375 -2.488281 1.914062 -1.976562 2.28125 -1.59375 C 2.65625 -1.207031 3.09375 -1.015625 3.59375 -1.015625 C 4.101562 -1.015625 4.539062 -1.203125 4.90625 -1.578125 Z M 3.328125 0.09375 C 2.503906 0.09375 1.8125 -0.203125 1.25 -0.796875 C 0.695312 -1.398438 0.421875 -2.171875 0.421875 -3.109375 C 0.421875 -4.046875 0.695312 -4.804688 1.25 -5.390625 C 1.8125 -5.984375 2.503906 -6.28125 3.328125 -6.28125 C 3.816406 -6.28125 4.242188 -6.171875 4.609375 -5.953125 C 4.984375 -5.734375 5.269531 -5.441406 5.46875 -5.078125 L 5.46875 -6.1875 L 6.765625 -6.1875 L 6.765625 0 L 5.46875 0 L 5.46875 -1.15625 C 5.257812 -0.769531 4.972656 -0.460938 4.609375 -0.234375 C 4.242188 -0.015625 3.816406 0.09375 3.328125 0.09375 Z M 3.328125 0.09375 "/></g></g></g><g fill="#16191b" fill-opacity="1"><g transform="translate(924.37869, 163.141973)"><g><path d="M 4.90625 -1.578125 C 5.28125 -1.953125 5.46875 -2.457031 5.46875 -3.09375 C 5.46875 -3.726562 5.28125 -4.234375 4.90625 -4.609375 C 4.539062 -4.984375 4.101562 -5.171875 3.59375 -5.171875 C 3.09375 -5.171875 2.65625 -4.988281 2.28125 -4.625 C 1.914062 -4.257812 1.734375 -3.757812 1.734375 -3.125 C 1.734375 -2.488281 1.914062 -1.976562 2.28125 -1.59375 C 2.65625 -1.207031 3.09375 -1.015625 3.59375 -1.015625 C 4.101562 -1.015625 4.539062 -1.203125 4.90625 -1.578125 Z M 3.328125 0.09375 C 2.503906 0.09375 1.8125 -0.203125 1.25 -0.796875 C 0.695312 -1.398438 0.421875 -2.171875 0.421875 -3.109375 C 0.421875 -4.046875 0.695312 -4.804688 1.25 -5.390625 C 1.8125 -5.984375 2.503906 -6.28125 3.328125 -6.28125 C 3.816406 -6.28125 4.242188 -6.171875 4.609375 -5.953125 C 4.984375 -5.734375 5.269531 -5.441406 5.46875 -5.078125 L 5.46875 -8.296875 L 6.765625 -8.296875 L 6.765625 0 L 5.46875 0 L 5.46875 -1.15625 C 5.257812 -0.769531 4.972656 -0.460938 4.609375 -0.234375 C 4.242188 -0.015625 3.816406 0.09375 3.328125 0.09375 Z M 3.328125 0.09375 "/></g></g></g><g fill="#16191b" fill-opacity="1"><g transform="translate(931.990176, 163.141973)"><g><path d="M 3.4375 0.09375 C 2.539062 0.09375 1.8125 -0.195312 1.25 -0.78125 C 0.695312 -1.363281 0.421875 -2.132812 0.421875 -3.09375 C 0.421875 -4.0625 0.703125 -4.832031 1.265625 -5.40625 C 1.835938 -5.988281 2.570312 -6.28125 3.46875 -6.28125 C 4.375 -6.28125 5.101562 -6 5.65625 -5.4375 C 6.21875 -4.882812 6.5 -4.160156 6.5 -3.265625 C 6.5 -3.046875 6.488281 -2.84375 6.46875 -2.65625 L 1.734375 -2.65625 C 1.753906 -2.144531 1.921875 -1.734375 2.234375 -1.421875 C 2.554688 -1.117188 2.957031 -0.96875 3.4375 -0.96875 C 4.132812 -0.96875 4.625 -1.257812 4.90625 -1.84375 L 6.296875 -1.84375 C 6.109375 -1.269531 5.765625 -0.800781 5.265625 -0.4375 C 4.773438 -0.0820312 4.164062 0.09375 3.4375 0.09375 Z M 5.171875 -3.53125 C 5.160156 -4.039062 4.988281 -4.445312 4.65625 -4.75 C 4.332031 -5.050781 3.9375 -5.203125 3.46875 -5.203125 C 3 -5.203125 2.601562 -5.050781 2.28125 -4.75 C 1.96875 -4.445312 1.785156 -4.039062 1.734375 -3.53125 Z M 5.171875 -3.53125 "/></g></g></g><g fill="#16191b" fill-opacity="1"><g transform="translate(845.332582, 178.853777)"><g><path d="M 9.046875 -7.796875 L 9.046875 0 L 7.78125 0 L 7.78125 -5.34375 L 5.390625 0 L 4.515625 0 L 2.125 -5.34375 L 2.125 0 L 0.84375 0 L 0.84375 -7.796875 L 2.21875 -7.796875 L 4.953125 -1.6875 L 7.6875 -7.796875 Z M 9.046875 -7.796875 "/></g></g></g><g fill="#16191b" fill-opacity="1"><g transform="translate(855.234257, 178.853777)"><g><path d="M 3.4375 0.09375 C 2.539062 0.09375 1.8125 -0.195312 1.25 -0.78125 C 0.695312 -1.363281 0.421875 -2.132812 0.421875 -3.09375 C 0.421875 -4.0625 0.703125 -4.832031 1.265625 -5.40625 C 1.835938 -5.988281 2.570312 -6.28125 3.46875 -6.28125 C 4.375 -6.28125 5.101562 -6 5.65625 -5.4375 C 6.21875 -4.882812 6.5 -4.160156 6.5 -3.265625 C 6.5 -3.046875 6.488281 -2.84375 6.46875 -2.65625 L 1.734375 -2.65625 C 1.753906 -2.144531 1.921875 -1.734375 2.234375 -1.421875 C 2.554688 -1.117188 2.957031 -0.96875 3.4375 -0.96875 C 4.132812 -0.96875 4.625 -1.257812 4.90625 -1.84375 L 6.296875 -1.84375 C 6.109375 -1.269531 5.765625 -0.800781 5.265625 -0.4375 C 4.773438 -0.0820312 4.164062 0.09375 3.4375 0.09375 Z M 5.171875 -3.53125 C 5.160156 -4.039062 4.988281 -4.445312 4.65625 -4.75 C 4.332031 -5.050781 3.9375 -5.203125 3.46875 -5.203125 C 3 -5.203125 2.601562 -5.050781 2.28125 -4.75 C 1.96875 -4.445312 1.785156 -4.039062 1.734375 -3.53125 Z M 5.171875 -3.53125 "/></g></g></g><g fill="#16191b" fill-opacity="1"><g transform="translate(862.160939, 178.853777)"><g><path d="M 0.84375 0 L 0.84375 -8.296875 L 2.125 -8.296875 L 2.125 0 Z M 0.84375 0 "/></g></g></g><g fill="#16191b" fill-opacity="1"><g transform="translate(865.124705, 178.853777)"><g><path d="M 2.125 -8.296875 L 2.125 -5.203125 C 2.53125 -5.921875 3.1875 -6.28125 4.09375 -6.28125 C 4.789062 -6.28125 5.363281 -6.046875 5.8125 -5.578125 C 6.269531 -5.117188 6.5 -4.472656 6.5 -3.640625 L 6.5 0 L 5.234375 0 L 5.234375 -3.453125 C 5.234375 -4.003906 5.09375 -4.425781 4.8125 -4.71875 C 4.53125 -5.019531 4.148438 -5.171875 3.671875 -5.171875 C 3.203125 -5.171875 2.828125 -5.019531 2.546875 -4.71875 C 2.265625 -4.425781 2.125 -4.003906 2.125 -3.453125 L 2.125 0 L 0.84375 0 L 0.84375 -8.296875 Z M 2.125 -8.296875 "/></g></g></g><g fill="#16191b" fill-opacity="1"><g transform="translate(872.41063, 178.853777)"><g><path d="M 4.859375 -1.53125 C 5.234375 -1.90625 5.421875 -2.425781 5.421875 -3.09375 C 5.421875 -3.757812 5.238281 -4.273438 4.875 -4.640625 C 4.507812 -5.015625 4.066406 -5.203125 3.546875 -5.203125 C 3.035156 -5.203125 2.601562 -5.015625 2.25 -4.640625 C 1.90625 -4.273438 1.734375 -3.757812 1.734375 -3.09375 C 1.734375 -2.425781 1.90625 -1.90625 2.25 -1.53125 C 2.59375 -1.15625 3.019531 -0.96875 3.53125 -0.96875 C 4.039062 -0.96875 4.484375 -1.15625 4.859375 -1.53125 Z M 3.515625 0.09375 C 2.617188 0.09375 1.878906 -0.195312 1.296875 -0.78125 C 0.710938 -1.363281 0.421875 -2.128906 0.421875 -3.078125 C 0.421875 -4.035156 0.722656 -4.804688 1.328125 -5.390625 C 1.929688 -5.984375 2.679688 -6.28125 3.578125 -6.28125 C 4.472656 -6.28125 5.222656 -5.984375 5.828125 -5.390625 C 6.429688 -4.804688 6.734375 -4.039062 6.734375 -3.09375 C 6.734375 -2.144531 6.421875 -1.375 5.796875 -0.78125 C 5.179688 -0.195312 4.421875 0.09375 3.515625 0.09375 Z M 3.515625 0.09375 "/></g></g></g><g fill="#16191b" fill-opacity="1"><g transform="translate(879.573068, 178.853777)"><g><path d="M 2.125 -6.1875 L 2.125 -5.109375 C 2.519531 -5.890625 3.132812 -6.28125 3.96875 -6.28125 L 3.96875 -4.953125 L 3.640625 -4.953125 C 3.140625 -4.953125 2.757812 -4.828125 2.5 -4.578125 C 2.25 -4.328125 2.125 -3.882812 2.125 -3.25 L 2.125 0 L 0.84375 0 L 0.84375 -6.1875 Z M 2.125 -6.1875 "/></g></g></g><g fill="#16191b" fill-opacity="1"><g transform="translate(883.884002, 178.853777)"><g><path d="M 3.4375 0.09375 C 2.539062 0.09375 1.8125 -0.195312 1.25 -0.78125 C 0.695312 -1.363281 0.421875 -2.132812 0.421875 -3.09375 C 0.421875 -4.0625 0.703125 -4.832031 1.265625 -5.40625 C 1.835938 -5.988281 2.570312 -6.28125 3.46875 -6.28125 C 4.375 -6.28125 5.101562 -6 5.65625 -5.4375 C 6.21875 -4.882812 6.5 -4.160156 6.5 -3.265625 C 6.5 -3.046875 6.488281 -2.84375 6.46875 -2.65625 L 1.734375 -2.65625 C 1.753906 -2.144531 1.921875 -1.734375 2.234375 -1.421875 C 2.554688 -1.117188 2.957031 -0.96875 3.4375 -0.96875 C 4.132812 -0.96875 4.625 -1.257812 4.90625 -1.84375 L 6.296875 -1.84375 C 6.109375 -1.269531 5.765625 -0.800781 5.265625 -0.4375 C 4.773438 -0.0820312 4.164062 0.09375 3.4375 0.09375 Z M 5.171875 -3.53125 C 5.160156 -4.039062 4.988281 -4.445312 4.65625 -4.75 C 4.332031 -5.050781 3.9375 -5.203125 3.46875 -5.203125 C 3 -5.203125 2.601562 -5.050781 2.28125 -4.75 C 1.96875 -4.445312 1.785156 -4.039062 1.734375 -3.53125 Z M 5.171875 -3.53125 "/></g></g></g><g fill="#16191b" fill-opacity="1"><g transform="translate(890.810683, 178.853777)"><g><path d="M 0.5625 -4.40625 C 0.5625 -4.925781 0.78125 -5.367188 1.21875 -5.734375 C 1.664062 -6.097656 2.242188 -6.28125 2.953125 -6.28125 C 3.671875 -6.28125 4.242188 -6.101562 4.671875 -5.75 C 5.097656 -5.394531 5.320312 -4.910156 5.34375 -4.296875 L 4.03125 -4.296875 C 4.007812 -4.597656 3.90625 -4.832031 3.71875 -5 C 3.53125 -5.175781 3.265625 -5.265625 2.921875 -5.265625 C 2.578125 -5.265625 2.304688 -5.1875 2.109375 -5.03125 C 1.910156 -4.882812 1.8125 -4.6875 1.8125 -4.4375 C 1.8125 -4.1875 1.9375 -3.988281 2.1875 -3.84375 C 2.4375 -3.707031 2.738281 -3.601562 3.09375 -3.53125 C 3.445312 -3.46875 3.800781 -3.382812 4.15625 -3.28125 C 4.507812 -3.1875 4.8125 -3.007812 5.0625 -2.75 C 5.3125 -2.488281 5.4375 -2.144531 5.4375 -1.71875 C 5.4375 -1.175781 5.207031 -0.738281 4.75 -0.40625 C 4.300781 -0.0703125 3.71875 0.09375 3 0.09375 C 2.289062 0.09375 1.710938 -0.078125 1.265625 -0.421875 C 0.828125 -0.765625 0.585938 -1.253906 0.546875 -1.890625 L 1.875 -1.890625 C 1.894531 -1.578125 2.003906 -1.332031 2.203125 -1.15625 C 2.410156 -0.988281 2.6875 -0.90625 3.03125 -0.90625 C 3.382812 -0.90625 3.660156 -0.984375 3.859375 -1.140625 C 4.066406 -1.296875 4.171875 -1.5 4.171875 -1.75 C 4.171875 -2 4.046875 -2.195312 3.796875 -2.34375 C 3.554688 -2.488281 3.253906 -2.59375 2.890625 -2.65625 C 2.535156 -2.726562 2.179688 -2.8125 1.828125 -2.90625 C 1.472656 -3 1.171875 -3.171875 0.921875 -3.421875 C 0.679688 -3.671875 0.5625 -4 0.5625 -4.40625 Z M 0.5625 -4.40625 "/></g></g></g><g fill="#16191b" fill-opacity="1"><g transform="translate(896.805575, 178.853777)"><g/></g></g><g fill="#16191b" fill-opacity="1"><g transform="translate(900.173491, 178.853777)"><g><path d="M 5.3125 -1.59375 C 5.6875 -1.976562 5.875 -2.488281 5.875 -3.125 C 5.875 -3.757812 5.6875 -4.257812 5.3125 -4.625 C 4.945312 -4.988281 4.507812 -5.171875 4 -5.171875 C 3.488281 -5.171875 3.046875 -4.984375 2.671875 -4.609375 C 2.304688 -4.234375 2.125 -3.726562 2.125 -3.09375 C 2.125 -2.457031 2.304688 -1.953125 2.671875 -1.578125 C 3.046875 -1.203125 3.484375 -1.015625 3.984375 -1.015625 C 4.492188 -1.015625 4.9375 -1.207031 5.3125 -1.59375 Z M 4.28125 -6.28125 C 5.101562 -6.28125 5.789062 -5.984375 6.34375 -5.390625 C 6.90625 -4.804688 7.1875 -4.046875 7.1875 -3.109375 C 7.1875 -2.171875 6.90625 -1.398438 6.34375 -0.796875 C 5.789062 -0.203125 5.101562 0.09375 4.28125 0.09375 C 3.789062 0.09375 3.363281 -0.015625 3 -0.234375 C 2.632812 -0.460938 2.34375 -0.769531 2.125 -1.15625 L 2.125 2.9375 L 0.84375 2.9375 L 0.84375 -6.1875 L 2.125 -6.1875 L 2.125 -5.078125 C 2.332031 -5.441406 2.617188 -5.734375 2.984375 -5.953125 C 3.359375 -6.171875 3.789062 -6.28125 4.28125 -6.28125 Z M 4.28125 -6.28125 "/></g></g></g><g fill="#16191b" fill-opacity="1"><g transform="translate(907.784982, 178.853777)"><g><path d="M 2.125 -6.1875 L 2.125 -5.109375 C 2.519531 -5.890625 3.132812 -6.28125 3.96875 -6.28125 L 3.96875 -4.953125 L 3.640625 -4.953125 C 3.140625 -4.953125 2.757812 -4.828125 2.5 -4.578125 C 2.25 -4.328125 2.125 -3.882812 2.125 -3.25 L 2.125 0 L 0.84375 0 L 0.84375 -6.1875 Z M 2.125 -6.1875 "/></g></g></g><g fill="#16191b" fill-opacity="1"><g transform="translate(912.095913, 178.853777)"><g><path d="M 3.4375 0.09375 C 2.539062 0.09375 1.8125 -0.195312 1.25 -0.78125 C 0.695312 -1.363281 0.421875 -2.132812 0.421875 -3.09375 C 0.421875 -4.0625 0.703125 -4.832031 1.265625 -5.40625 C 1.835938 -5.988281 2.570312 -6.28125 3.46875 -6.28125 C 4.375 -6.28125 5.101562 -6 5.65625 -5.4375 C 6.21875 -4.882812 6.5 -4.160156 6.5 -3.265625 C 6.5 -3.046875 6.488281 -2.84375 6.46875 -2.65625 L 1.734375 -2.65625 C 1.753906 -2.144531 1.921875 -1.734375 2.234375 -1.421875 C 2.554688 -1.117188 2.957031 -0.96875 3.4375 -0.96875 C 4.132812 -0.96875 4.625 -1.257812 4.90625 -1.84375 L 6.296875 -1.84375 C 6.109375 -1.269531 5.765625 -0.800781 5.265625 -0.4375 C 4.773438 -0.0820312 4.164062 0.09375 3.4375 0.09375 Z M 5.171875 -3.53125 C 5.160156 -4.039062 4.988281 -4.445312 4.65625 -4.75 C 4.332031 -5.050781 3.9375 -5.203125 3.46875 -5.203125 C 3 -5.203125 2.601562 -5.050781 2.28125 -4.75 C 1.96875 -4.445312 1.785156 -4.039062 1.734375 -3.53125 Z M 5.171875 -3.53125 "/></g></g></g><g fill="#16191b" fill-opacity="1"><g transform="translate(919.022597, 178.853777)"><g><path d="M 3.4375 -5.203125 C 2.914062 -5.203125 2.5 -5.015625 2.1875 -4.640625 C 1.882812 -4.273438 1.734375 -3.757812 1.734375 -3.09375 C 1.734375 -2.425781 1.882812 -1.90625 2.1875 -1.53125 C 2.5 -1.15625 2.914062 -0.96875 3.4375 -0.96875 C 4.1875 -0.96875 4.675781 -1.296875 4.90625 -1.953125 L 6.296875 -1.953125 C 6.128906 -1.378906 5.832031 -0.910156 5.40625 -0.546875 C 4.988281 -0.191406 4.460938 0.015625 3.828125 0.078125 L 3.828125 0.53125 C 4.253906 0.53125 4.601562 0.632812 4.875 0.84375 C 5.144531 1.050781 5.28125 1.34375 5.28125 1.71875 C 5.28125 2.09375 5.144531 2.390625 4.875 2.609375 C 4.601562 2.828125 4.265625 2.9375 3.859375 2.9375 L 2.375 2.9375 L 2.375 2.125 L 3.59375 2.125 C 3.8125 2.125 3.972656 2.09375 4.078125 2.03125 C 4.179688 1.976562 4.234375 1.875 4.234375 1.71875 C 4.234375 1.5625 4.179688 1.453125 4.078125 1.390625 C 3.972656 1.328125 3.8125 1.296875 3.59375 1.296875 L 2.984375 1.296875 L 2.984375 0.0625 C 2.210938 -0.03125 1.59375 -0.359375 1.125 -0.921875 C 0.65625 -1.492188 0.421875 -2.238281 0.421875 -3.15625 C 0.421875 -4.070312 0.703125 -4.820312 1.265625 -5.40625 C 1.828125 -5.988281 2.550781 -6.28125 3.4375 -6.28125 C 4.1875 -6.28125 4.804688 -6.101562 5.296875 -5.75 C 5.785156 -5.394531 6.117188 -4.890625 6.296875 -4.234375 L 4.90625 -4.234375 C 4.675781 -4.878906 4.1875 -5.203125 3.4375 -5.203125 Z M 3.4375 -5.203125 "/></g></g></g><g fill="#16191b" fill-opacity="1"><g transform="translate(925.75843, 178.853777)"><g><path d="M 4.859375 -1.53125 C 5.234375 -1.90625 5.421875 -2.425781 5.421875 -3.09375 C 5.421875 -3.757812 5.238281 -4.273438 4.875 -4.640625 C 4.507812 -5.015625 4.066406 -5.203125 3.546875 -5.203125 C 3.035156 -5.203125 2.601562 -5.015625 2.25 -4.640625 C 1.90625 -4.273438 1.734375 -3.757812 1.734375 -3.09375 C 1.734375 -2.425781 1.90625 -1.90625 2.25 -1.53125 C 2.59375 -1.15625 3.019531 -0.96875 3.53125 -0.96875 C 4.039062 -0.96875 4.484375 -1.15625 4.859375 -1.53125 Z M 3.515625 0.09375 C 2.617188 0.09375 1.878906 -0.195312 1.296875 -0.78125 C 0.710938 -1.363281 0.421875 -2.128906 0.421875 -3.078125 C 0.421875 -4.035156 0.722656 -4.804688 1.328125 -5.390625 C 1.929688 -5.984375 2.679688 -6.28125 3.578125 -6.28125 C 4.472656 -6.28125 5.222656 -5.984375 5.828125 -5.390625 C 6.429688 -4.804688 6.734375 -4.039062 6.734375 -3.09375 C 6.734375 -2.144531 6.421875 -1.375 5.796875 -0.78125 C 5.179688 -0.195312 4.421875 0.09375 3.515625 0.09375 Z M 3.515625 0.09375 "/></g></g></g><g fill="#16191b" fill-opacity="1"><g transform="translate(932.920868, 178.853777)"><g><path d="M 0.5625 -4.40625 C 0.5625 -4.925781 0.78125 -5.367188 1.21875 -5.734375 C 1.664062 -6.097656 2.242188 -6.28125 2.953125 -6.28125 C 3.671875 -6.28125 4.242188 -6.101562 4.671875 -5.75 C 5.097656 -5.394531 5.320312 -4.910156 5.34375 -4.296875 L 4.03125 -4.296875 C 4.007812 -4.597656 3.90625 -4.832031 3.71875 -5 C 3.53125 -5.175781 3.265625 -5.265625 2.921875 -5.265625 C 2.578125 -5.265625 2.304688 -5.1875 2.109375 -5.03125 C 1.910156 -4.882812 1.8125 -4.6875 1.8125 -4.4375 C 1.8125 -4.1875 1.9375 -3.988281 2.1875 -3.84375 C 2.4375 -3.707031 2.738281 -3.601562 3.09375 -3.53125 C 3.445312 -3.46875 3.800781 -3.382812 4.15625 -3.28125 C 4.507812 -3.1875 4.8125 -3.007812 5.0625 -2.75 C 5.3125 -2.488281 5.4375 -2.144531 5.4375 -1.71875 C 5.4375 -1.175781 5.207031 -0.738281 4.75 -0.40625 C 4.300781 -0.0703125 3.71875 0.09375 3 0.09375 C 2.289062 0.09375 1.710938 -0.078125 1.265625 -0.421875 C 0.828125 -0.765625 0.585938 -1.253906 0.546875 -1.890625 L 1.875 -1.890625 C 1.894531 -1.578125 2.003906 -1.332031 2.203125 -1.15625 C 2.410156 -0.988281 2.6875 -0.90625 3.03125 -0.90625 C 3.382812 -0.90625 3.660156 -0.984375 3.859375 -1.140625 C 4.066406 -1.296875 4.171875 -1.5 4.171875 -1.75 C 4.171875 -2 4.046875 -2.195312 3.796875 -2.34375 C 3.554688 -2.488281 3.253906 -2.59375 2.890625 -2.65625 C 2.535156 -2.726562 2.179688 -2.8125 1.828125 -2.90625 C 1.472656 -3 1.171875 -3.171875 0.921875 -3.421875 C 0.679688 -3.671875 0.5625 -4 0.5625 -4.40625 Z M 0.5625 -4.40625 "/></g></g></g><g fill="#16191b" fill-opacity="1"><g transform="translate(854.022625, 194.565581)"><g><path d="M 5.15625 -7.8125 L 5.15625 -6.8125 L 2.125 -6.8125 L 2.125 -4.4375 L 4.8125 -4.4375 L 4.8125 -3.453125 L 2.125 -3.453125 L 2.125 -1 L 5.15625 -1 L 5.15625 0 L 0.84375 0 L 0.84375 -7.8125 Z M 5.15625 -7.8125 "/></g></g></g><g fill="#16191b" fill-opacity="1"><g transform="translate(859.905253, 194.565581)"><g><path d="M 2.125 -6.1875 L 2.125 -5.203125 C 2.53125 -5.921875 3.1875 -6.28125 4.09375 -6.28125 C 4.789062 -6.28125 5.363281 -6.046875 5.8125 -5.578125 C 6.269531 -5.117188 6.5 -4.472656 6.5 -3.640625 L 6.5 0 L 5.234375 0 L 5.234375 -3.453125 C 5.234375 -4.003906 5.09375 -4.425781 4.8125 -4.71875 C 4.53125 -5.019531 4.148438 -5.171875 3.671875 -5.171875 C 3.203125 -5.171875 2.828125 -5.019531 2.546875 -4.71875 C 2.265625 -4.425781 2.125 -4.003906 2.125 -3.453125 L 2.125 0 L 0.84375 0 L 0.84375 -6.1875 Z M 2.125 -6.1875 "/></g></g></g><g fill="#16191b" fill-opacity="1"><g transform="translate(867.191179, 194.565581)"><g><path d="M 3.84375 -5.140625 L 2.328125 -5.140625 L 2.328125 -1.71875 C 2.328125 -1.488281 2.378906 -1.320312 2.484375 -1.21875 C 2.597656 -1.113281 2.785156 -1.0625 3.046875 -1.0625 L 3.84375 -1.0625 L 3.84375 0 L 2.828125 0 C 1.640625 0 1.046875 -0.570312 1.046875 -1.71875 L 1.046875 -5.140625 L 0.3125 -5.140625 L 0.3125 -6.1875 L 1.046875 -6.1875 L 1.046875 -7.71875 L 2.328125 -7.71875 L 2.328125 -6.1875 L 3.84375 -6.1875 Z M 3.84375 -5.140625 "/></g></g></g><g fill="#16191b" fill-opacity="1"><g transform="translate(871.367396, 194.565581)"><g><path d="M 2.125 -6.1875 L 2.125 -5.109375 C 2.519531 -5.890625 3.132812 -6.28125 3.96875 -6.28125 L 3.96875 -4.953125 L 3.640625 -4.953125 C 3.140625 -4.953125 2.757812 -4.828125 2.5 -4.578125 C 2.25 -4.328125 2.125 -3.882812 2.125 -3.25 L 2.125 0 L 0.84375 0 L 0.84375 -6.1875 Z M 2.125 -6.1875 "/></g></g></g><g fill="#16191b" fill-opacity="1"><g transform="translate(875.678329, 194.565581)"><g><path d="M 3.4375 0.09375 C 2.539062 0.09375 1.8125 -0.195312 1.25 -0.78125 C 0.695312 -1.363281 0.421875 -2.132812 0.421875 -3.09375 C 0.421875 -4.0625 0.703125 -4.832031 1.265625 -5.40625 C 1.835938 -5.988281 2.570312 -6.28125 3.46875 -6.28125 C 4.375 -6.28125 5.101562 -6 5.65625 -5.4375 C 6.21875 -4.882812 6.5 -4.160156 6.5 -3.265625 C 6.5 -3.046875 6.488281 -2.84375 6.46875 -2.65625 L 1.734375 -2.65625 C 1.753906 -2.144531 1.921875 -1.734375 2.234375 -1.421875 C 2.554688 -1.117188 2.957031 -0.96875 3.4375 -0.96875 C 4.132812 -0.96875 4.625 -1.257812 4.90625 -1.84375 L 6.296875 -1.84375 C 6.109375 -1.269531 5.765625 -0.800781 5.265625 -0.4375 C 4.773438 -0.0820312 4.164062 0.09375 3.4375 0.09375 Z M 5.171875 -3.53125 C 5.160156 -4.039062 4.988281 -4.445312 4.65625 -4.75 C 4.332031 -5.050781 3.9375 -5.203125 3.46875 -5.203125 C 3 -5.203125 2.601562 -5.050781 2.28125 -4.75 C 1.96875 -4.445312 1.785156 -4.039062 1.734375 -3.53125 Z M 5.171875 -3.53125 "/></g></g></g><g fill="#16191b" fill-opacity="1"><g transform="translate(882.605009, 194.565581)"><g><path d="M 3.328125 0.09375 C 2.503906 0.09375 1.8125 -0.203125 1.25 -0.796875 C 0.695312 -1.398438 0.421875 -2.171875 0.421875 -3.109375 C 0.421875 -4.046875 0.695312 -4.804688 1.25 -5.390625 C 1.8125 -5.984375 2.503906 -6.28125 3.328125 -6.28125 C 3.816406 -6.28125 4.242188 -6.171875 4.609375 -5.953125 C 4.984375 -5.734375 5.269531 -5.441406 5.46875 -5.078125 L 5.46875 -6.1875 L 6.765625 -6.1875 L 6.765625 0.09375 C 6.765625 0.96875 6.492188 1.675781 5.953125 2.21875 C 5.421875 2.769531 4.707031 3.046875 3.8125 3.046875 C 2.925781 3.046875 2.207031 2.847656 1.65625 2.453125 C 1.101562 2.066406 0.789062 1.535156 0.71875 0.859375 L 1.984375 0.859375 C 2.078125 1.179688 2.28125 1.441406 2.59375 1.640625 C 2.914062 1.835938 3.316406 1.9375 3.796875 1.9375 C 4.273438 1.9375 4.671875 1.78125 4.984375 1.46875 C 5.304688 1.15625 5.46875 0.695312 5.46875 0.09375 L 5.46875 -1.15625 C 5.257812 -0.769531 4.972656 -0.460938 4.609375 -0.234375 C 4.242188 -0.015625 3.816406 0.09375 3.328125 0.09375 Z M 4.90625 -1.578125 C 5.28125 -1.953125 5.46875 -2.457031 5.46875 -3.09375 C 5.46875 -3.726562 5.28125 -4.234375 4.90625 -4.609375 C 4.539062 -4.984375 4.101562 -5.171875 3.59375 -5.171875 C 3.09375 -5.171875 2.65625 -4.988281 2.28125 -4.625 C 1.914062 -4.257812 1.734375 -3.757812 1.734375 -3.125 C 1.734375 -2.488281 1.914062 -1.976562 2.28125 -1.59375 C 2.65625 -1.207031 3.09375 -1.015625 3.59375 -1.015625 C 4.101562 -1.015625 4.539062 -1.203125 4.90625 -1.578125 Z M 4.90625 -1.578125 "/></g></g></g><g fill="#16191b" fill-opacity="1"><g transform="translate(890.2165, 194.565581)"><g><path d="M 4.90625 -1.578125 C 5.28125 -1.953125 5.46875 -2.457031 5.46875 -3.09375 C 5.46875 -3.726562 5.28125 -4.234375 4.90625 -4.609375 C 4.539062 -4.984375 4.101562 -5.171875 3.59375 -5.171875 C 3.09375 -5.171875 2.65625 -4.988281 2.28125 -4.625 C 1.914062 -4.257812 1.734375 -3.757812 1.734375 -3.125 C 1.734375 -2.488281 1.914062 -1.976562 2.28125 -1.59375 C 2.65625 -1.207031 3.09375 -1.015625 3.59375 -1.015625 C 4.101562 -1.015625 4.539062 -1.203125 4.90625 -1.578125 Z M 3.328125 0.09375 C 2.503906 0.09375 1.8125 -0.203125 1.25 -0.796875 C 0.695312 -1.398438 0.421875 -2.171875 0.421875 -3.109375 C 0.421875 -4.046875 0.695312 -4.804688 1.25 -5.390625 C 1.8125 -5.984375 2.503906 -6.28125 3.328125 -6.28125 C 3.816406 -6.28125 4.242188 -6.171875 4.609375 -5.953125 C 4.984375 -5.734375 5.269531 -5.441406 5.46875 -5.078125 L 5.46875 -6.1875 L 6.765625 -6.1875 L 6.765625 0 L 5.46875 0 L 5.46875 -1.15625 C 5.257812 -0.769531 4.972656 -0.460938 4.609375 -0.234375 C 4.242188 -0.015625 3.816406 0.09375 3.328125 0.09375 Z M 3.328125 0.09375 "/></g></g></g><g fill="#16191b" fill-opacity="1"><g transform="translate(897.827992, 194.565581)"><g/></g></g><g fill="#16191b" fill-opacity="1"><g transform="translate(901.195908, 194.565581)"><g><path d="M 2.125 -6.1875 L 2.125 -5.109375 C 2.519531 -5.890625 3.132812 -6.28125 3.96875 -6.28125 L 3.96875 -4.953125 L 3.640625 -4.953125 C 3.140625 -4.953125 2.757812 -4.828125 2.5 -4.578125 C 2.25 -4.328125 2.125 -3.882812 2.125 -3.25 L 2.125 0 L 0.84375 0 L 0.84375 -6.1875 Z M 2.125 -6.1875 "/></g></g></g><g fill="#16191b" fill-opacity="1"><g transform="translate(905.506844, 194.565581)"><g><path d="M 2.484375 -7.5625 L 4.953125 -8.9375 L 4.953125 -7.84375 L 2.484375 -6.625 Z M 4.90625 -1.578125 C 5.28125 -1.953125 5.46875 -2.457031 5.46875 -3.09375 C 5.46875 -3.726562 5.28125 -4.234375 4.90625 -4.609375 C 4.539062 -4.984375 4.101562 -5.171875 3.59375 -5.171875 C 3.09375 -5.171875 2.65625 -4.988281 2.28125 -4.625 C 1.914062 -4.257812 1.734375 -3.757812 1.734375 -3.125 C 1.734375 -2.488281 1.914062 -1.976562 2.28125 -1.59375 C 2.65625 -1.207031 3.09375 -1.015625 3.59375 -1.015625 C 4.101562 -1.015625 4.539062 -1.203125 4.90625 -1.578125 Z M 3.328125 0.09375 C 2.503906 0.09375 1.8125 -0.203125 1.25 -0.796875 C 0.695312 -1.398438 0.421875 -2.171875 0.421875 -3.109375 C 0.421875 -4.046875 0.695312 -4.804688 1.25 -5.390625 C 1.8125 -5.984375 2.503906 -6.28125 3.328125 -6.28125 C 3.816406 -6.28125 4.242188 -6.171875 4.609375 -5.953125 C 4.984375 -5.734375 5.269531 -5.441406 5.46875 -5.078125 L 5.46875 -6.1875 L 6.765625 -6.1875 L 6.765625 0 L 5.46875 0 L 5.46875 -1.15625 C 5.257812 -0.769531 4.972656 -0.460938 4.609375 -0.234375 C 4.242188 -0.015625 3.816406 0.09375 3.328125 0.09375 Z M 3.328125 0.09375 "/></g></g></g><g fill="#16191b" fill-opacity="1"><g transform="translate(913.118335, 194.565581)"><g><path d="M 5.3125 -1.59375 C 5.6875 -1.976562 5.875 -2.488281 5.875 -3.125 C 5.875 -3.757812 5.6875 -4.257812 5.3125 -4.625 C 4.945312 -4.988281 4.507812 -5.171875 4 -5.171875 C 3.488281 -5.171875 3.046875 -4.984375 2.671875 -4.609375 C 2.304688 -4.234375 2.125 -3.726562 2.125 -3.09375 C 2.125 -2.457031 2.304688 -1.953125 2.671875 -1.578125 C 3.046875 -1.203125 3.484375 -1.015625 3.984375 -1.015625 C 4.492188 -1.015625 4.9375 -1.207031 5.3125 -1.59375 Z M 4.28125 -6.28125 C 5.101562 -6.28125 5.789062 -5.984375 6.34375 -5.390625 C 6.90625 -4.804688 7.1875 -4.046875 7.1875 -3.109375 C 7.1875 -2.171875 6.90625 -1.398438 6.34375 -0.796875 C 5.789062 -0.203125 5.101562 0.09375 4.28125 0.09375 C 3.789062 0.09375 3.363281 -0.015625 3 -0.234375 C 2.632812 -0.460938 2.34375 -0.769531 2.125 -1.15625 L 2.125 2.9375 L 0.84375 2.9375 L 0.84375 -6.1875 L 2.125 -6.1875 L 2.125 -5.078125 C 2.332031 -5.441406 2.617188 -5.734375 2.984375 -5.953125 C 3.359375 -6.171875 3.789062 -6.28125 4.28125 -6.28125 Z M 4.28125 -6.28125 "/></g></g></g><g fill="#16191b" fill-opacity="1"><g transform="translate(920.729827, 194.565581)"><g><path d="M 2.296875 -7.8125 C 2.296875 -7.582031 2.21875 -7.390625 2.0625 -7.234375 C 1.90625 -7.078125 1.710938 -7 1.484375 -7 C 1.253906 -7 1.0625 -7.078125 0.90625 -7.234375 C 0.75 -7.390625 0.671875 -7.582031 0.671875 -7.8125 C 0.671875 -8.050781 0.75 -8.25 0.90625 -8.40625 C 1.0625 -8.5625 1.253906 -8.640625 1.484375 -8.640625 C 1.710938 -8.640625 1.90625 -8.5625 2.0625 -8.40625 C 2.21875 -8.25 2.296875 -8.050781 2.296875 -7.8125 Z M 0.84375 0 L 0.84375 -6.1875 L 2.125 -6.1875 L 2.125 0 Z M 0.84375 0 "/></g></g></g><g fill="#16191b" fill-opacity="1"><g transform="translate(923.693592, 194.565581)"><g><path d="M 4.90625 -1.578125 C 5.28125 -1.953125 5.46875 -2.457031 5.46875 -3.09375 C 5.46875 -3.726562 5.28125 -4.234375 4.90625 -4.609375 C 4.539062 -4.984375 4.101562 -5.171875 3.59375 -5.171875 C 3.09375 -5.171875 2.65625 -4.988281 2.28125 -4.625 C 1.914062 -4.257812 1.734375 -3.757812 1.734375 -3.125 C 1.734375 -2.488281 1.914062 -1.976562 2.28125 -1.59375 C 2.65625 -1.207031 3.09375 -1.015625 3.59375 -1.015625 C 4.101562 -1.015625 4.539062 -1.203125 4.90625 -1.578125 Z M 3.328125 0.09375 C 2.503906 0.09375 1.8125 -0.203125 1.25 -0.796875 C 0.695312 -1.398438 0.421875 -2.171875 0.421875 -3.109375 C 0.421875 -4.046875 0.695312 -4.804688 1.25 -5.390625 C 1.8125 -5.984375 2.503906 -6.28125 3.328125 -6.28125 C 3.816406 -6.28125 4.242188 -6.171875 4.609375 -5.953125 C 4.984375 -5.734375 5.269531 -5.441406 5.46875 -5.078125 L 5.46875 -8.296875 L 6.765625 -8.296875 L 6.765625 0 L 5.46875 0 L 5.46875 -1.15625 C 5.257812 -0.769531 4.972656 -0.460938 4.609375 -0.234375 C 4.242188 -0.015625 3.816406 0.09375 3.328125 0.09375 Z M 3.328125 0.09375 "/></g></g></g><g fill="#16191b" fill-opacity="1"><g transform="translate(931.305083, 194.565581)"><g><path d="M 4.90625 -1.578125 C 5.28125 -1.953125 5.46875 -2.457031 5.46875 -3.09375 C 5.46875 -3.726562 5.28125 -4.234375 4.90625 -4.609375 C 4.539062 -4.984375 4.101562 -5.171875 3.59375 -5.171875 C 3.09375 -5.171875 2.65625 -4.988281 2.28125 -4.625 C 1.914062 -4.257812 1.734375 -3.757812 1.734375 -3.125 C 1.734375 -2.488281 1.914062 -1.976562 2.28125 -1.59375 C 2.65625 -1.207031 3.09375 -1.015625 3.59375 -1.015625 C 4.101562 -1.015625 4.539062 -1.203125 4.90625 -1.578125 Z M 3.328125 0.09375 C 2.503906 0.09375 1.8125 -0.203125 1.25 -0.796875 C 0.695312 -1.398438 0.421875 -2.171875 0.421875 -3.109375 C 0.421875 -4.046875 0.695312 -4.804688 1.25 -5.390625 C 1.8125 -5.984375 2.503906 -6.28125 3.328125 -6.28125 C 3.816406 -6.28125 4.242188 -6.171875 4.609375 -5.953125 C 4.984375 -5.734375 5.269531 -5.441406 5.46875 -5.078125 L 5.46875 -6.1875 L 6.765625 -6.1875 L 6.765625 0 L 5.46875 0 L 5.46875 -1.15625 C 5.257812 -0.769531 4.972656 -0.460938 4.609375 -0.234375 C 4.242188 -0.015625 3.816406 0.09375 3.328125 0.09375 Z M 3.328125 0.09375 "/></g></g></g></svg>