<svg xmlns="http://www.w3.org/2000/svg" xmlns:xlink="http://www.w3.org/1999/xlink" width="500" zoomAndPan="magnify" viewBox="0 0 375 374.999991" height="500" preserveAspectRatio="xMidYMid meet" version="1.0"><defs><clipPath id="565201e201"><path d="M 73 26.949219 L 309 26.949219 L 309 356.199219 L 73 356.199219 Z M 73 26.949219 " clip-rule="nonzero"/></clipPath></defs><path fill="#000000" d="M 123.292969 234.988281 L 140.054688 245.164062 C 135.71875 248.914062 129.292969 256.355469 128.1875 268.148438 C 126.921875 281.457031 133.246094 294.769531 143.921875 301.277344 C 144.332031 301.53125 144.804688 301.660156 145.285156 301.660156 L 267.039062 301.660156 C 267.492188 301.660156 267.941406 301.539062 268.335938 301.316406 C 277.941406 295.816406 284.148438 284.226562 284.148438 271.792969 C 284.148438 259.355469 277.941406 247.769531 268.335938 242.265625 C 267.941406 242.042969 267.496094 241.921875 267.039062 241.921875 L 249.699219 241.921875 C 242.769531 237.703125 235.835938 233.492188 228.902344 229.277344 C 221.351562 224.695312 213.808594 220.109375 206.265625 215.515625 L 206.261719 215.515625 L 154.210938 183.902344 C 153.800781 183.65625 153.332031 183.523438 152.855469 183.523438 C 140.359375 183.523438 128.058594 191.628906 122.246094 203.683594 C 115.101562 218.4375 121.054688 231.484375 122.320312 233.945312 C 122.542969 234.375 122.878906 234.738281 123.292969 234.988281 Z M 133.386719 268.644531 C 134.609375 255.613281 143.640625 248.753906 146.039062 247.152344 L 203.550781 247.152344 L 203.550781 296.433594 L 146.035156 296.433594 C 137.394531 290.8125 132.328125 279.746094 133.386719 268.644531 Z M 239.632812 241.925781 L 193.34375 241.925781 L 205.789062 221.347656 C 212.585938 225.484375 219.386719 229.621094 226.1875 233.75 C 230.671875 236.472656 235.152344 239.199219 239.632812 241.925781 Z M 239.632812 241.925781 " fill-opacity="1" fill-rule="nonzero"/><g clip-path="url(#565201e201)"><path fill="#000000" d="M 307.964844 326.199219 L 307.964844 156.742188 C 307.964844 120.796875 290.429688 101.113281 280.320312 92.746094 L 281.195312 92.746094 C 282.636719 92.746094 283.804688 91.574219 283.804688 90.132812 L 283.804688 29.5625 C 283.804688 28.117188 282.636719 26.949219 281.195312 26.949219 L 99.945312 26.949219 C 98.503906 26.949219 97.332031 28.117188 97.332031 29.5625 L 97.332031 90.132812 C 97.332031 91.574219 98.503906 92.746094 99.945312 92.746094 L 100.820312 92.746094 C 90.707031 101.113281 73.171875 120.796875 73.171875 156.742188 L 73.171875 326.199219 C 73.015625 327.855469 72.042969 340.832031 79.5625 349.238281 C 83.695312 353.855469 89.535156 356.199219 96.914062 356.199219 L 284.21875 356.199219 C 291.601562 356.199219 297.4375 353.855469 301.570312 349.238281 C 309.089844 340.828125 308.121094 327.851562 307.964844 326.199219 Z M 78.394531 235.054688 L 105.976562 235.054688 C 107.417969 235.054688 108.585938 233.886719 108.585938 232.441406 L 108.585938 159.773438 C 108.585938 151.199219 115.546875 144.222656 124.101562 144.222656 L 257.035156 144.222656 C 265.585938 144.222656 272.546875 151.199219 272.546875 159.773438 L 272.546875 232.441406 C 272.546875 233.886719 273.714844 235.054688 275.15625 235.054688 L 302.738281 235.054688 L 302.738281 311.59375 L 275.15625 311.59375 C 273.714844 311.59375 272.546875 312.761719 272.546875 314.207031 C 272.546875 322.792969 265.585938 329.78125 257.035156 329.78125 L 124.101562 329.78125 C 119.964844 329.78125 116.0625 328.160156 113.132812 325.222656 C 110.199219 322.265625 108.585938 318.355469 108.585938 314.207031 C 108.585938 312.761719 107.417969 311.59375 105.976562 311.59375 L 78.394531 311.59375 Z M 102.554688 32.175781 L 278.578125 32.175781 L 278.578125 87.519531 L 102.554688 87.519531 Z M 109.726562 92.746094 L 271.410156 92.746094 C 275.542969 95.308594 302.738281 113.824219 302.738281 156.742188 L 302.738281 229.828125 L 277.773438 229.828125 L 277.773438 159.773438 C 277.773438 148.316406 268.46875 138.996094 257.035156 138.996094 L 124.101562 138.996094 C 112.667969 138.996094 103.367188 148.316406 103.367188 159.773438 L 103.367188 229.828125 L 78.398438 229.828125 L 78.398438 156.742188 C 78.394531 113.824219 105.589844 95.308594 109.726562 92.746094 Z M 297.679688 345.75 C 294.582031 349.214844 290.050781 350.972656 284.222656 350.972656 L 96.914062 350.972656 C 91.089844 350.972656 86.570312 349.222656 83.472656 345.769531 C 77.15625 338.730469 78.367188 326.738281 78.378906 326.617188 C 78.390625 326.523438 78.394531 326.425781 78.394531 326.332031 L 78.394531 316.820312 L 103.527344 316.820312 C 104.09375 321.371094 106.136719 325.589844 109.429688 328.910156 C 113.355469 332.84375 118.570312 335.007812 124.101562 335.007812 L 257.035156 335.007812 C 267.585938 335.007812 276.320312 327.058594 277.605469 316.820312 L 302.738281 316.820312 L 302.738281 326.332031 C 302.738281 326.429688 302.742188 326.527344 302.753906 326.621094 C 302.769531 326.742188 304.011719 338.671875 297.679688 345.75 Z M 297.679688 345.75 " fill-opacity="1" fill-rule="nonzero"/></g><path fill="#000000" d="M 250.972656 42.078125 C 249.53125 42.078125 248.363281 43.25 248.363281 44.691406 L 248.363281 71.945312 C 248.363281 73.386719 249.53125 74.558594 250.972656 74.558594 C 252.414062 74.558594 253.585938 73.386719 253.585938 71.945312 L 253.585938 44.691406 C 253.585938 43.25 252.414062 42.078125 250.972656 42.078125 Z M 250.972656 42.078125 " fill-opacity="1" fill-rule="nonzero"/><path fill="#000000" d="M 217.753906 42.078125 C 216.3125 42.078125 215.140625 43.25 215.140625 44.691406 L 215.140625 71.945312 C 215.140625 73.386719 216.3125 74.558594 217.753906 74.558594 C 219.195312 74.558594 220.367188 73.386719 220.367188 71.945312 L 220.367188 44.691406 C 220.367188 43.25 219.199219 42.078125 217.753906 42.078125 Z M 217.753906 42.078125 " fill-opacity="1" fill-rule="nonzero"/><path fill="#000000" d="M 130.160156 42.078125 C 128.71875 42.078125 127.546875 43.25 127.546875 44.691406 L 127.546875 71.945312 C 127.546875 73.386719 128.71875 74.558594 130.160156 74.558594 C 131.601562 74.558594 132.769531 73.386719 132.769531 71.945312 L 132.769531 44.691406 C 132.769531 43.25 131.605469 42.078125 130.160156 42.078125 Z M 130.160156 42.078125 " fill-opacity="1" fill-rule="nonzero"/><path fill="#000000" d="M 163.378906 42.078125 C 161.9375 42.078125 160.769531 43.25 160.769531 44.691406 L 160.769531 71.945312 C 160.769531 73.386719 161.9375 74.558594 163.378906 74.558594 C 164.820312 74.558594 165.992188 73.386719 165.992188 71.945312 L 165.992188 44.691406 C 165.992188 43.25 164.820312 42.078125 163.378906 42.078125 Z M 163.378906 42.078125 " fill-opacity="1" fill-rule="nonzero"/><path fill="#000000" d="M 190.566406 42.078125 C 189.125 42.078125 187.957031 43.25 187.957031 44.691406 L 187.957031 71.945312 C 187.957031 73.386719 189.125 74.558594 190.566406 74.558594 C 192.007812 74.558594 193.179688 73.386719 193.179688 71.945312 L 193.179688 44.691406 C 193.179688 43.25 192.011719 42.078125 190.566406 42.078125 Z M 190.566406 42.078125 " fill-opacity="1" fill-rule="nonzero"/></svg>